<svg width="646" height="328" viewBox="0 0 646 328" fill="none" xmlns="http://www.w3.org/2000/svg">
<rect x="94.3203" y="216.157" width="11" height="16" transform="rotate(-9.41728 94.3203 216.157)" fill="#E9D8BE" stroke="black"/>
<rect x="68.5523" y="143.511" width="11" height="16" transform="rotate(6.354 68.5523 143.511)" fill="#E9D8BE" stroke="black"/>
<rect x="61.7714" y="183.722" width="11" height="16" transform="rotate(17.9924 61.7714 183.722)" fill="#E9D8BE" stroke="black"/>
<rect x="58.8723" y="218.058" width="11" height="16" transform="rotate(0.0902905 58.8723 218.058)" fill="#E9D8BE" stroke="black"/>
<rect x="68.5523" y="143.511" width="11" height="16" transform="rotate(6.354 68.5523 143.511)" fill="#E9D8BE" stroke="black"/>
<rect x="64.8974" y="165.404" width="11" height="16" transform="rotate(6.354 64.8974 165.404)" fill="#E9D8BE" stroke="black"/>
<rect x="98.2967" y="195.38" width="11" height="16" transform="rotate(13.258 98.2967 195.38)" fill="#E9D8BE" stroke="black"/>
<rect x="111.646" y="153.633" width="11" height="16" transform="rotate(13.258 111.646 153.633)" fill="#E9D8BE" stroke="black"/>
<path d="M152.382 166.164L171.25 136.595L195.444 142.295L189.538 167.358L152.382 166.164Z" fill="#E9D8BE" stroke="black"/>
<path d="M149.757 187.837L158.05 168.164L190.019 171.689L182.167 187.98L149.757 187.837Z" fill="#E9D8BE" stroke="black"/>
<path d="M196.27 165.976L219.461 170.86L214.352 199.153L194.57 195.768L196.27 165.976Z" fill="#E9D8BE" stroke="black"/>
<path d="M222.739 199.918L224.443 170.062L256.123 172.908L242.625 203.321L222.739 199.918Z" fill="#E9D8BE" stroke="black"/>
<path d="M258.584 202.127L260.287 172.27L291.967 175.116L278.47 205.53L258.584 202.127Z" fill="#E9D8BE" stroke="black"/>
<path d="M295.141 174.557L331.319 174.673L313.351 207.864L293.434 204.456L295.141 174.557Z" fill="#E9D8BE" stroke="black"/>
<path d="M415.051 195.502L444.882 198.954L426.867 232.232L407.038 228.838L415.051 195.502Z" fill="#E9D8BE" stroke="black"/>
<path d="M367.711 223.774L385.118 199.444L408.639 205.345L403.568 227.61L367.711 223.774Z" fill="#E9D8BE" stroke="black"/>
<path d="M344.049 209.208L375.343 204.018L365.434 216.758L322.244 212.825L344.049 209.208Z" fill="#E9D8BE" stroke="black"/>
<path d="M228.136 206.533L217.241 224.893L186.05 217.048L196.047 201.978L228.136 206.533Z" fill="#E9D8BE" stroke="black"/>
<path d="M263.989 211.894L274.444 228.626L222.751 224.449L231.431 207.273L263.989 211.894Z" fill="#E9D8BE" stroke="black"/>
<path d="M322.708 218.343L325.698 236.37L279.763 228.656L271.353 212.379L322.708 218.343Z" fill="#E9D8BE" stroke="black"/>
<path d="M373.472 227.551L376.465 245.594L330.636 237.898L327.704 220.219L373.472 227.551Z" fill="#E9D8BE" stroke="black"/>
<path d="M424.236 235.838L427.229 253.881L381.399 246.184L378.467 228.506L424.236 235.838Z" fill="#E9D8BE" stroke="black"/>
<path d="M471.157 193.347L487.843 200.836L456.076 234.754L439.728 227.416L471.157 193.347Z" fill="#E9D8BE" stroke="black"/>
<path d="M588.786 53.3474L607.355 50.2675L573.344 95.0954L552.344 104.275L588.786 53.3474Z" fill="#EB0F0F" stroke="black"/>
<path d="M515.368 21.0041L533.412 27.7615L496.233 70.6218L467.535 73.4689L515.368 21.0041Z" fill="#EB0F0F" stroke="black"/>
<path d="M537.031 30.0259L555.064 36.7796L517.976 79.5354L499.797 73.2964L537.031 30.0259Z" fill="#EB0F0F" stroke="black"/>
<path d="M495.756 76.403L513.771 83.1498L491.766 107.087L472.419 103.108L495.756 76.403Z" fill="#EB0F0F" stroke="black"/>
<path d="M539.965 94.7053L550.138 99.5741L531.127 126.733L517.758 115.123L539.965 94.7053Z" fill="#EB0F0F" stroke="black"/>
<path d="M497.019 136.528L504.66 148.95L441.429 219.337L459.164 182.338L497.019 136.528Z" fill="#E9D8BE" stroke="black"/>
<path d="M458.618 123.424L471.814 128.807L461.707 142.933L447.583 137.701L458.618 123.424Z" fill="#E9D8BE" stroke="black"/>
<path d="M443.566 182.032L455.022 184.919L444.12 197.522L431.794 194.854L443.566 182.032Z" fill="#E9D8BE" stroke="black"/>
<path d="M430.203 177.951L441.241 179.88L429.692 192.196L417.784 190.522L430.203 177.951Z" fill="#E9D8BE" stroke="black"/>
<path d="M452.619 163.347L465.815 168.729L455.708 182.856L441.584 177.623L452.619 163.347Z" fill="#E9D8BE" stroke="black"/>
<path d="M466.113 146.917L479.309 152.3L469.201 166.426L455.077 161.194L466.113 146.917Z" fill="#E9D8BE" stroke="black"/>
<path d="M449.573 142.132L461.936 146.057L445.943 163.819L435.095 160.043L449.573 142.132Z" fill="#E9D8BE" stroke="black"/>
<path d="M478.456 129.665L491.652 135.048L481.545 149.174L467.421 143.942L478.456 129.665Z" fill="#E9D8BE" stroke="black"/>
<path d="M500.977 133.949L514.129 116.328L525.392 124.76L510.798 142.307L500.977 133.949Z" fill="#E9D8BE" stroke="black"/>
<path d="M491.289 110.957L509.582 117.46L497.355 131.453L485.267 126.316L491.289 110.957Z" fill="#E9D8BE" stroke="black"/>
<path d="M470.27 107.258L486.391 109.364L480.181 126.63L463.86 120.622L470.27 107.258Z" fill="#E9D8BE" stroke="black"/>
<path d="M582.085 43.677L588.184 47.591L554.795 93.062L541.133 89.7109L582.085 43.677Z" fill="#EB0F0F" stroke="black"/>
<path d="M517.135 82.9999L535.143 89.7442L514.049 113.007L496.516 108.26L517.135 82.9999Z" fill="#EB0F0F" stroke="black"/>
<path d="M558.261 37.6549L576.294 44.4087L539.207 87.1644L521.027 80.9254L558.261 37.6549Z" fill="#EB0F0F" stroke="black"/>
<path d="M464.068 78.5103L490.524 74.1223L467.45 100.497L441.308 98.1046L464.068 78.5103Z" fill="#C4C4C4" stroke="black"/>
<path d="M464.088 78.507L490.544 74.119L467.47 100.493L441.328 98.1013L464.088 78.507Z" fill="#EB0F0F" stroke="black"/>
<path d="M440.665 102.008L468.454 104.081L445.07 130.81L421.953 134.645L440.665 102.008Z" fill="#E9D8BE" stroke="black"/>
<path d="M418.304 138.075L446.092 140.148L422.709 166.877L399.591 170.711L418.304 138.075Z" fill="#E9D8BE" stroke="black"/>
<path d="M337.217 174.851L354.654 176.976L382.346 196.886L318.513 207.473L337.217 174.851Z" fill="#E9D8BE" stroke="black"/>
<path d="M403.442 202.371L362.3 179.208L399.712 180.522L399.811 180.526L399.903 180.491L436.399 166.913L403.442 202.371Z" fill="#E9D8BE" stroke="black"/>
<path d="M507.206 155.128L532.307 159.368L492.088 196.612L475.716 189.263L507.206 155.128Z" fill="#E9D8BE" stroke="black"/>
<path d="M528.487 127.858L537.136 145.191L533.226 156.425L510.44 152.505L528.487 127.858Z" fill="#E9D8BE" stroke="black"/>
<path d="M549.622 110.456L572.513 98.8467L541.891 148.039L532.376 130.988L549.622 110.456Z" fill="#EB0F0F" stroke="black"/>
<path d="M143.621 223.909L155.639 190.956L180.493 191.283L180.154 217.03L143.621 223.909Z" fill="#E9D8BE" stroke="black"/>
<path d="M148.397 194.259L138.6 227.94L113.78 229.269L112.403 203.557L148.397 194.259Z" fill="#E9D8BE" stroke="black"/>
<path d="M151.511 170.893L145.651 188.426L114.121 198.539L126.648 162.319L151.511 170.893Z" fill="#E9D8BE" stroke="black"/>
<path d="M147.125 146.246L147.166 146.223L147.202 146.193L155.189 139.475L149.536 163.468L126.246 157.981L147.125 146.246Z" fill="#E9D8BE" stroke="black"/>
<path d="M80.3961 161.933L83.5036 146.15L108.548 152.358L104.878 167.933L80.3961 161.933Z" fill="#E9D8BE" stroke="black"/>
<rect x="158.87" y="113.66" width="21.1234" height="16" transform="rotate(36.7988 158.87 113.66)" fill="#E9D8BE" stroke="black"/>
<path d="M444.723 250.282L438.204 251.364L434.399 228.423L452.627 242.078L444.723 250.282Z" fill="#E9D8BE" stroke="black"/>
<path d="M119.631 115.253L130.534 105.801L151.433 110.279L148.098 125.847L119.631 115.253Z" fill="#E9D8BE" stroke="black"/>
<rect x="80.5631" y="167.912" width="21.1234" height="16" transform="rotate(13.258 80.5631 167.912)" fill="#E9D8BE" stroke="black"/>
<rect x="74.7932" y="188.128" width="21.1234" height="16" transform="rotate(13.258 74.7932 188.128)" fill="#E9D8BE" stroke="black"/>
<rect x="71.7529" y="217.942" width="21.1234" height="16" transform="rotate(-0.877489 71.7529 217.942)" fill="#E9D8BE" stroke="black"/>
<path d="M24.142 223.286L33.7702 218.729L55.2827 218.4L55.5245 234.183L24.142 223.286Z" fill="#E9D8BE" stroke="black"/>
<path d="M22.6943 186.681L33.6903 178.392L57.7596 181.191L54.479 197.718L22.6943 186.681Z" fill="#E9D8BE" stroke="black"/>
<path d="M27.1456 170.738L38.1416 162.449L62.2109 165.248L58.9302 181.775L27.1456 170.738Z" fill="#E9D8BE" stroke="black"/>
<path d="M38.3716 149.03L46.648 142.374L64.9494 144.664L62.4838 157.987L38.3716 149.03Z" fill="#E9D8BE" stroke="black"/>
<rect x="104.067" y="175.164" width="11" height="16" transform="rotate(13.258 104.067 175.164)" fill="#E9D8BE" stroke="black"/>
</svg>
