<svg width="538" height="534" viewBox="0 0 538 534" fill="none" xmlns="http://www.w3.org/2000/svg">
<g id="bturtle">
<g id="bturtle__foot--leftfront">
<path id="Rectangle 250" d="M34.8314 180.552L43.1634 183.758L41.4917 193.672L30.8332 189.53L34.8314 180.552Z" fill="#279A2C" stroke="black"/>
<path id="Rectangle 257" d="M32.1629 193.008L38.0646 194.939L36.6955 201.368L29.16 198.876L32.1629 193.008Z" fill="#279A2C" stroke="black"/>
<path id="Rectangle 258" d="M46.5657 207.869L51.8506 209.27L50.4529 214.449L43.7223 212.643L46.5657 207.869Z" fill="#279A2C" stroke="black"/>
<path id="Rectangle 260" d="M35.7922 211.869L41.0772 213.27L39.6794 218.449L32.9489 216.643L35.7922 211.869Z" fill="#279A2C" stroke="black"/>
<path id="Rectangle 259" d="M37.9831 205.477L42.2427 206.793L41.2177 211.276L35.788 209.58L37.9831 205.477Z" fill="#279A2C" stroke="black"/>
<path id="Rectangle 261" d="M43.9831 214.634L48.2427 215.95L47.2177 220.433L41.788 218.737L43.9831 214.634Z" fill="#279A2C" stroke="black"/>
<path id="Rectangle 256" d="M25.8314 199.552L34.1634 202.758L32.4916 212.672L21.8332 208.53L25.8314 199.552Z" fill="#279A2C" stroke="black"/>
<path id="Rectangle 255" d="M34.5583 219.124L43.3502 220.675L43.6089 230.726L32.3543 228.702L34.5583 219.124Z" fill="#279A2C" stroke="black"/>
<path id="Rectangle 254" d="M21.8314 214.552L30.1634 217.758L28.4916 227.672L17.8332 223.53L21.8314 214.552Z" fill="#279A2C" stroke="black"/>
<path id="Rectangle 253" d="M14.5527 209.914L18.0744 213.902L15.4791 220.491L10.9607 215.338L14.5527 209.914Z" fill="#279A2C" stroke="black"/>
<path id="Rectangle 252" d="M11.8314 195.552L20.1634 198.758L18.4916 208.672L7.83323 204.53L11.8314 195.552Z" fill="#279A2C" stroke="black"/>
<path id="Rectangle 251" d="M20.8314 184.552L29.1634 187.758L27.4916 197.672L16.8332 193.53L20.8314 184.552Z" fill="#279A2C" stroke="black"/>
<path id="Rectangle 249" d="M45.3031 192.273L56.6799 195.357L53.6728 206.753L39.1452 202.766L45.3031 192.273Z" fill="#279A2C" stroke="black"/>
<path id="Rectangle 248" d="M50.2358 177.287L61.8261 181.44L59.3261 194.733L44.503 189.366L50.2358 177.287Z" fill="#279A2C" stroke="black"/>
</g>
<g id="bturtle__foot--leftback">
<path id="Rectangle 276" d="M307.421 499.685L308.416 486.967L319.616 485.522L318.3 501.795L307.421 499.685Z" fill="#279A2C" stroke="black"/>
<path id="Rectangle 277" d="M321.405 498.662L321.745 489.705L329.156 489.155L328.694 500.594L321.405 498.662Z" fill="#279A2C" stroke="black"/>
<path id="Rectangle 278" d="M332.97 473.694L332.915 465.771L339.004 465.738L339.05 475.832L332.97 473.694Z" fill="#279A2C" stroke="black"/>
<path id="Rectangle 279" d="M340.343 486.76L340.288 478.837L346.377 478.803L346.423 488.897L340.343 486.76Z" fill="#279A2C" stroke="black"/>
<path id="Rectangle 280" d="M332.927 486.176L333.089 479.666L338.336 479.377L338.109 487.676L332.927 486.176Z" fill="#279A2C" stroke="black"/>
<path id="Rectangle 281" d="M340.884 474.68L341.046 468.169L346.293 467.88L346.067 476.179L340.884 474.68Z" fill="#279A2C" stroke="black"/>
<path id="Rectangle 282" d="M330.173 504.794L331.168 492.076L342.368 490.63L341.052 506.903L330.173 504.794Z" fill="#279A2C" stroke="black"/>
<path id="Rectangle 283" d="M348.386 485.776L347.452 473.068L358.244 468.909L359.398 485.189L348.386 485.776Z" fill="#279A2C" stroke="black"/>
<path id="Rectangle 284" d="M347.231 504.634L348.226 491.916L359.426 490.47L358.11 506.743L347.231 504.634Z" fill="#279A2C" stroke="black"/>
<path id="Rectangle 285" d="M344.374 516.153L347.722 509.633L355.689 510.727L351.368 519.077L344.374 516.153Z" fill="#279A2C" stroke="black"/>
<path id="Rectangle 286" d="M330.008 525.182L331.002 512.464L342.202 511.019L340.886 527.291L330.008 525.182Z" fill="#279A2C" stroke="black"/>
<path id="Rectangle 287" d="M315.733 517.107L316.728 504.389L327.928 502.943L326.612 519.216L315.733 517.107Z" fill="#279A2C" stroke="black"/>
<path id="Rectangle 288" d="M316.81 481.183L316.768 464.409L329.913 464.242L329.916 485.674L316.81 481.183Z" fill="#279A2C" stroke="black"/>
<path id="Rectangle 289" d="M299.484 480.09L300.529 462.624L315.546 461.05L314.15 483.398L299.484 480.09Z" fill="#279A2C" stroke="black"/>
</g>
<g id="bturtle__foot--rightfront">
<path id="Rectangle 262" d="M184.661 73.4736L186.166 80.2091L179.359 83.445L177.459 74.8119L184.661 73.4736Z" fill="#279A2C" stroke="black"/>
<path id="Rectangle 263" d="M175.619 77.2768L176.879 81.8437L172.413 83.7311L170.821 77.8923L175.619 77.2768Z" fill="#279A2C" stroke="black"/>
<path id="Rectangle 264" d="M172.39 93.414L173.711 97.3403L170.028 98.6616L168.362 93.6597L172.39 93.414Z" fill="#279A2C" stroke="black"/>
<path id="Rectangle 265" d="M165.223 88.0966L166.544 92.0229L162.861 93.3442L161.195 88.3423L165.223 88.0966Z" fill="#279A2C" stroke="black"/>
<path id="Rectangle 266" d="M170.215 86.6886L171.157 89.8985L168.073 91.1461L166.886 87.0517L170.215 86.6886Z" fill="#279A2C" stroke="black"/>
<path id="Rectangle 267" d="M166.989 94.7398L167.93 97.9498L164.846 99.1974L163.659 95.103L166.989 94.7398Z" fill="#279A2C" stroke="black"/>
<path id="Rectangle 268" d="M168.745 76.0332L170.25 82.7687L163.444 86.0045L161.543 77.3715L168.745 76.0332Z" fill="#279A2C" stroke="black"/>
<path id="Rectangle 269" d="M160.112 90.5535L162.829 96.8609L156.743 101.394L153.288 93.3029L160.112 90.5535Z" fill="#279A2C" stroke="black"/>
<path id="Rectangle 270" d="M157.514 80.1011L159.02 86.8365L152.213 90.0724L150.313 81.4394L157.514 80.1011Z" fill="#279A2C" stroke="black"/>
<path id="Rectangle 271" d="M157.269 73.2097L156.304 77.1153L151.246 78.2944L152.508 73.2631L157.269 73.2097Z" fill="#279A2C" stroke="black"/>
<path id="Rectangle 272" d="M165.263 65.0117L166.769 71.7472L159.962 74.9831L158.062 66.35L165.263 65.0117Z" fill="#279A2C" stroke="black"/>
<path id="Rectangle 273" d="M176.107 66.0293L177.612 72.7648L170.805 76.0006L168.905 67.3676L176.107 66.0293Z" fill="#279A2C" stroke="black"/>
<path id="Rectangle 274" d="M181.736 85.6089L184.609 94.3051L176.293 97.3431L172.656 86.2242L181.736 85.6089Z" fill="#279A2C" stroke="black"/>
<path id="Rectangle 275" d="M193.354 82.1708L195.655 91.481L186.351 95.6853L183.442 83.7565L193.354 82.1708Z" fill="#279A2C" stroke="black"/>
</g>
<g id="bturtle__shell--inner">
<path id="Rectangle 209" d="M263.012 209.072L302.422 222.703L293.618 267.211L243.193 249.586L263.012 209.072Z" fill="#279A2C" stroke="black"/>
<path id="Rectangle 211" d="M211.538 189.593L250.856 203.191L242.135 239.733L200.615 226.544L211.538 189.593Z" fill="#279A2C" stroke="black"/>
<path id="Rectangle 212" d="M284.934 150.786L315.347 171.642L315.347 208.593L276.073 190.587L284.934 150.786Z" fill="#279A2C" stroke="black"/>
<path id="Rectangle 213" d="M318.499 225.58L357.808 239.175L344.7 276.212L305.14 260.095L318.499 225.58Z" fill="#279A2C" stroke="black"/>
<path id="Rectangle 229" d="M420.849 265.621L442.947 277.175L442.947 312.698L412.792 303.528L420.849 265.621Z" fill="#279A2C" stroke="black"/>
<path id="Rectangle 230" d="M378.752 208.261L402.092 228.683L414.976 254.929L370.107 237.077L378.752 208.261Z" fill="#279A2C" stroke="black"/>
<path id="Rectangle 228" d="M400.462 310.567L439.872 324.197L431.068 368.705L380.644 351.081L400.462 310.567Z" fill="#279A2C" stroke="black"/>
<path id="Rectangle 227" d="M335.462 332.567L374.872 346.197L366.068 390.705L315.644 373.081L335.462 332.567Z" fill="#279A2C" stroke="black"/>
<path id="Rectangle 226" d="M176.529 120.52L222.392 129.266L213.135 169.22L164.644 152.566L176.529 120.52Z" fill="#279A2C" stroke="black"/>
<path id="Rectangle 225" d="M159.462 168.567L198.872 182.197L190.068 226.705L139.644 209.081L159.462 168.567Z" fill="#279A2C" stroke="black"/>
<path id="Rectangle 224" d="M143.462 216.567L182.872 230.197L174.068 274.705L123.644 257.081L143.462 216.567Z" fill="#279A2C" stroke="black"/>
<path id="Rectangle 223" d="M176.462 282.567L215.872 296.197L207.068 340.705L156.644 323.081L176.462 282.567Z" fill="#279A2C" stroke="black"/>
<path id="Rectangle 222" d="M229.462 302.567L268.872 316.197L260.068 360.705L209.644 343.081L229.462 302.567Z" fill="#279A2C" stroke="black"/>
<path id="Rectangle 221" d="M280.462 319.567L319.872 333.197L311.068 377.705L260.644 360.081L280.462 319.567Z" fill="#279A2C" stroke="black"/>
<path id="Rectangle 220" d="M346.756 289.567L386.9 310.129L378.172 339.705L333.648 322.091L346.756 289.567Z" fill="#279A2C" stroke="black"/>
<path id="Rectangle 219" d="M372.462 245.567L411.872 259.197L403.068 303.705L352.644 286.081L372.462 245.567Z" fill="#279A2C" stroke="black"/>
<path id="Rectangle 218" d="M236.566 131.751L266.947 150.154L266.947 190.176L228.068 177.038L236.566 131.751Z" fill="#279A2C" stroke="black"/>
<path id="Rectangle 217" d="M332.504 177.732L362.947 197.147L362.947 235.579L321.594 216.101L332.504 177.732Z" fill="#279A2C" stroke="black"/>
<path id="Rectangle 216" d="M196.458 238.565L235.793 252.17L221.217 289.711L179.682 272.12L196.458 238.565Z" fill="#279A2C" stroke="black"/>
<path id="Rectangle 215" d="M297.462 270.567L336.872 284.197L328.068 328.705L277.644 311.081L297.462 270.567Z" fill="#279A2C" stroke="black"/>
<path id="Rectangle 214" d="M244.318 259.489L283.891 271.215L275.151 304.719L234.126 290.068L244.318 259.489Z" fill="#279A2C" stroke="black"/>
</g>
<g id="bturtle__shell--outer">
<path id="Rectangle 196" d="M43.7527 233.873L87.3252 131.378L144.814 132.361L112.133 233.873H43.7527Z" fill="#279A2C" stroke="black"/>
<path id="Rectangle 208" d="M112.234 123.873L173.088 100.873H189.036L146.869 123.873H112.234Z" fill="#279A2C" stroke="black"/>
<path id="Rectangle 198" d="M236.645 393.125L220.128 459.491L92.4256 365.933L145.706 336.693L236.645 393.125Z" fill="#279A2C" stroke="black"/>
<path id="Rectangle 199" d="M244.399 393.873L350.497 393.873L350.497 454.372L231.119 454.372L244.399 393.873Z" fill="#279A2C" stroke="black"/>
<path id="Rectangle 201" d="M470.88 453.97L357.497 453.97L357.497 393.47L423.254 393.47L470.88 453.97Z" fill="#279A2C" stroke="black"/>
<path id="Rectangle 203" d="M451.497 277.163L471.497 265.734L471.497 351.165L451.497 331.165L451.497 277.163Z" fill="#279A2C" stroke="black"/>
<path id="Rectangle 204" d="M403.025 225.036L413.177 197.819L470.886 261.81L448.09 276.222L403.025 225.036Z" fill="#279A2C" stroke="black"/>
<path id="Rectangle 205" d="M369.597 147.776L407.928 193.97L397.833 221.371L357.589 171.311L369.597 147.776Z" fill="#279A2C" stroke="black"/>
<path id="Rectangle 206" d="M284.997 105.687L365.849 146.7L355.484 170.348L284.997 134.566L284.997 105.687Z" fill="#279A2C" stroke="black"/>
<path id="Rectangle 207" d="M224.549 85.4113L279.497 102.242L279.497 137.126L193.671 101.815L224.549 85.4113Z" fill="#279A2C" stroke="black"/>
<path id="Rectangle 202" d="M471.315 446.075L430.079 382.352L451.137 344.154L471.315 361.601L471.315 446.075Z" fill="#279A2C" stroke="black"/>
<path id="Rectangle 197" d="M146.363 334.116L82.818 363.672L46.6584 236.058L108.77 236.06L146.363 334.116Z" fill="#279A2C" stroke="black"/>
</g>
<g id="bturtle__head--front">
<path id="Rectangle 231" d="M20.0294 57.5727L40.9968 35.62L40.9968 65.1599L20.0294 57.5727Z" fill="#279A2C" stroke="black"/>
<path id="Rectangle 232" d="M43.8769 32.3215L73.6363 9.17531L64.2731 44.6892L43.8769 32.3215Z" fill="#279A2C" stroke="black"/>
<path id="Rectangle 233" d="M49.5016 67.4223L49.5016 42.1371L71.9725 51.9701L49.5016 67.4223Z" fill="#279A2C" stroke="black"/>
<path id="Rectangle 246" d="M53.6148 72.7733L59.7125 88.45L37.6814 67.3468L53.6148 72.7733Z" fill="#279A2C" stroke="black"/>
<path id="Rectangle 247" d="M89.2405 124.371L66.3256 95.0923L97.7275 124.371L89.2405 124.371Z" fill="#279A2C" stroke="black"/>
<path id="Rectangle 240" d="M90.7104 81.7822L77.2198 56.6619L94.9533 50.8535L90.7104 81.7822Z" fill="#279A2C" stroke="black"/>
<path id="Rectangle 242" d="M99.8115 123.329L87.3064 106.046L105.837 97.0359L99.8115 123.329Z" fill="#279A2C" stroke="black"/>
<path id="Rectangle 245" d="M104.362 93.0682L91.6251 97.6172L96.1741 69.4133L104.362 93.0682Z" fill="#279A2C" stroke="black"/>
<path id="Rectangle 243" d="M90.4437 89.6934L86.7393 102.937L62.9918 80.3378L90.4437 89.6934Z" fill="#279A2C" stroke="black"/>
<path id="Rectangle 244" d="M130.95 110.816L104.368 123.407L112.763 99.6226L130.95 110.816Z" fill="#279A2C" stroke="black"/>
<path id="Rectangle 241" d="M72.7886 59.4803L85.824 82.3259L53.2352 68.3593L72.7886 59.4803Z" fill="#279A2C" stroke="black"/>
<path id="Rectangle 234" d="M72.8137 37.5379L80.7722 9.18887L113.722 9.00546L72.8137 37.5379Z" fill="#279A2C" stroke="black"/>
<path id="Rectangle 235" d="M92.1448 38.5312L118.353 13.7726L131.852 23.6095L92.1448 38.5312Z" fill="#279A2C" stroke="black"/>
<path id="Rectangle 237" d="M98.4022 50.7918L143.15 56.7094L145.572 76.9107L98.4022 50.7918Z" fill="#279A2C" stroke="black"/>
<path id="Rectangle 238" d="M100.532 65.9521L142.982 81.2956L141.03 101.548L100.532 65.9521Z" fill="#279A2C" stroke="black"/>
<path id="Rectangle 239" d="M124.712 104.373L105.35 83.9682L136.329 104.373L124.712 104.373Z" fill="#279A2C" stroke="black"/>
<ellipse id="Ellipse 8" cx="82.9968" cy="44.8726" rx="7" ry="6" fill="#279A2C"/>
<path id="Rectangle 236" d="M92.6578 45.9579L135.378 31.3847L146.52 48.4084L92.6578 45.9579Z" fill="#279A2C" stroke="black"/>
</g>
<g id="bturtle__foot--rightback">
<path id="Rectangle 290" d="M509.084 386.513L498.988 385.625L498.248 378.289L511.143 379.452L509.084 386.513Z" fill="#279A2C" stroke="black"/>
<path id="Rectangle 291" d="M508.771 377.097L501.72 376.713L501.555 371.943L510.533 372.451L508.771 377.097Z" fill="#279A2C" stroke="black"/>
<path id="Rectangle 292" d="M488.868 368.857L482.655 368.749L482.842 364.881L490.726 365.034L488.868 368.857Z" fill="#279A2C" stroke="black"/>
<path id="Rectangle 293" d="M499.781 364.148L493.569 364.04L493.756 360.172L501.639 360.324L499.781 364.148Z" fill="#279A2C" stroke="black"/>
<path id="Rectangle 294" d="M499.03 369.12L493.968 368.899L493.93 365.589L500.354 365.882L499.03 369.12Z" fill="#279A2C" stroke="black"/>
<path id="Rectangle 295" d="M489.961 363.556L484.899 363.335L484.86 360.025L491.285 360.318L489.961 363.556Z" fill="#279A2C" stroke="black"/>
<path id="Rectangle 296" d="M514.087 371.318L503.991 370.431L503.251 363.095L516.146 364.258L514.087 371.318Z" fill="#279A2C" stroke="black"/>
<path id="Rectangle 297" d="M499.245 358.748L489.094 359.128L486.182 351.985L499.176 351.527L499.245 358.748Z" fill="#279A2C" stroke="black"/>
<path id="Rectangle 298" d="M514.588 359.851L504.492 358.963L503.751 351.628L516.647 352.79L514.588 359.851Z" fill="#279A2C" stroke="black"/>
<path id="Rectangle 299" d="M523.921 361.94L518.921 359.652L520.05 354.575L526.435 357.518L523.921 361.94Z" fill="#279A2C" stroke="black"/>
<path id="Rectangle 300" d="M530.686 371.813L520.59 370.925L519.85 363.589L532.745 364.752L530.686 371.813Z" fill="#279A2C" stroke="black"/>
<path id="Rectangle 301" d="M523.581 381.254L513.485 380.367L512.745 373.031L525.64 374.194L523.581 381.254Z" fill="#279A2C" stroke="black"/>
<path id="Rectangle 302" d="M494.368 379.858L480.946 379.576L481.288 370.964L498.406 371.357L494.368 379.858Z" fill="#279A2C" stroke="black"/>
<path id="Rectangle 303" d="M492.57 390.761L478.611 389.746L477.901 379.844L495.736 381.179L492.57 390.761Z" fill="#279A2C" stroke="black"/>
</g>
</g>
</svg>
