<svg width="116" height="92" viewBox="0 0 116 92" fill="none" xmlns="http://www.w3.org/2000/svg">
<path d="M40.237 56.0015L45.857 61.695L37.0958 70.343L31.4759 64.6495L40.237 56.0015Z" fill="#F40009" stroke="black"/>
<path d="M32.9976 62.3621L28.4486 68.9429L14.4644 59.2764L19.0134 52.6956L32.9976 62.3621Z" fill="#F40009" stroke="black"/>
<path d="M37.5081 45.3262L40.117 51.7257L26.0295 57.4689L23.4206 51.0694L37.5081 45.3262Z" fill="#F40009" stroke="black"/>
<path d="M28.1627 38.6517L31.1828 46.0597L15.4407 52.4775L12.4206 45.0694L28.1627 38.6517Z" fill="#B2363A" stroke="black"/>
<path d="M5.43802 63.7796L5.43802 48.633L13.1933 50.4795L13.1933 70.8658L5.43802 63.7796Z" fill="#DDDBDB" stroke="black"/>
<rect x="20.5749" y="72.5733" width="4.68122" height="5.19738" transform="rotate(13.3925 20.5749 72.5733)" fill="#DDDBDB" stroke="black"/>
<rect x="15.0154" y="62.7229" width="3.16159" height="7.09958" transform="rotate(13.3925 15.0154 62.7229)" fill="#C1C0C0" stroke="black"/>
<path d="M21.2395 79.2604L25.969 77.5214L34.1933 79.4795L34.1933 90.4099L21.2395 79.2604Z" fill="#DDDBDB" stroke="black"/>
<path d="M101.032 63.7196L106.702 49.762L109.474 46.4825L109.474 56.2743L101.032 63.7196Z" fill="#C1C0C0" stroke="black"/>
<path d="M90.6257 17.1846L85.7425 2.97258L93.3459 8.31396L96.2746 17.1846L90.6257 17.1846Z" fill="#F40009" stroke="black"/>
<path d="M84.1627 3.65171L87.1828 11.0597L71.4407 17.4775L68.4206 10.0694L84.1627 3.65171Z" fill="#F40009" stroke="black"/>
<path d="M24.1701 28.2216L27.6652 36.7947L14.0431 42.3482L10.548 33.775L24.1701 28.2216Z" fill="#B2363A" stroke="black"/>
<path d="M50.1627 76.6517L53.1827 84.0597L37.4407 90.4775L34.4206 83.0694L50.1627 76.6517Z" fill="#F40009" stroke="black"/>
<path d="M51.1627 65.6517L54.1827 73.0597L38.4407 79.4775L35.4206 72.0694L51.1627 65.6517Z" fill="#F40009" stroke="black"/>
<path d="M34.1828 72.3406L32.3507 76.433L17.4295 69.753L19.2616 65.6606L34.1828 72.3406Z" fill="#C1C0C0" stroke="black"/>
<path d="M26.42 29.6554L35.9108 25.8099L39.1176 33.7244L29.6268 37.5699L26.42 29.6554Z" fill="#B2363A" stroke="black"/>
<path d="M27.42 37.4967L36.9108 33.6512L40.1176 41.5657L30.6268 45.4112L27.42 37.4967Z" fill="#B2363A" stroke="black"/>
<path d="M62.8512 22.3203L62.8512 19.0121L69.0498 10.9943L72.1177 18.5657L62.8512 22.3203Z" fill="#F40009" stroke="black"/>
<path d="M76.42 17.4967L85.9108 13.6512L89.1176 21.5657L79.6268 25.4112L76.42 17.4967Z" fill="#F40009" stroke="black"/>
<path d="M65.42 23.4967L74.9108 19.6512L78.1176 27.5657L68.6268 31.4112L65.42 23.4967Z" fill="#F40009" stroke="black"/>
<path d="M81.42 25.4967L90.9108 21.6512L94.1176 29.5657L84.6268 33.4112L81.42 25.4967Z" fill="#F40009" stroke="black"/>
<path d="M71.42 31.4967L80.9108 27.6512L84.1176 35.5657L74.6268 39.4112L71.42 31.4967Z" fill="#F40009" stroke="black"/>
<path d="M72.42 42.4967L81.9108 38.6512L85.1176 46.5657L75.6268 50.4112L72.42 42.4967Z" fill="#F40009" stroke="black"/>
<path d="M85.42 35.4967L94.9108 31.6512L98.1176 39.5657L88.6268 43.4112L85.42 35.4967Z" fill="#F40009" stroke="black"/>
<path d="M88.42 45.4967L97.9108 41.6512L101.118 49.5657L91.6268 53.4112L88.42 45.4967Z" fill="#F40009" stroke="black"/>
<path d="M77.42 51.4967L86.9108 47.6512L90.1176 55.5657L80.6268 59.4112L77.42 51.4967Z" fill="#F40009" stroke="black"/>
<path d="M95.4369 59.4095L98.7082 52.6682L103.59 55.0372L100.319 61.7785L95.4369 59.4095Z" fill="#B2363A" stroke="black"/>
<path d="M82.4369 69.4095L85.7082 62.6682L90.5902 65.0372L87.319 71.7785L82.4369 69.4095Z" fill="#B2363A" stroke="black"/>
<path d="M78.4369 65.4095L81.7082 58.6682L86.5902 61.0372L83.319 67.7785L78.4369 65.4095Z" fill="#B2363A" stroke="black"/>
<path d="M85.4369 62.4095L88.7082 55.6682L93.5902 58.0372L90.319 64.7785L85.4369 62.4095Z" fill="#B3363A" stroke="black"/>
<path d="M90.4369 67.4095L93.7082 60.6682L98.5902 63.0372L95.319 69.7785L90.4369 67.4095Z" fill="#B2363A" stroke="black"/>
<path d="M58.6569 64.7309L58.6569 75.8923L55.8576 82.0891L51.3836 67.5593L58.6569 64.7309Z" fill="#F40009" stroke="black"/>
<path d="M67.4836 71.1214L59.7251 64.4266L66.8722 61.6472L72.3926 75.843L67.5036 71.1397L67.4939 71.1303L67.4836 71.1214Z" fill="#F40009" stroke="black"/>
<path d="M62.0889 43.1265L46.0458 49.3561L43.3047 42.651L58.8854 35.8198L62.0889 43.1265Z" fill="white" stroke="black"/>
<path d="M74.8319 58.6629L77.732 68.4481L73.3593 76.8296L67.4161 61.5467L74.8319 58.6629Z" fill="#B2363A" stroke="black"/>
<path d="M44.9006 28.9097L49.0173 38.4977L41.5777 41.3908L35.6098 26.0445L44.9006 28.9097Z" fill="#B2363A" stroke="black"/>
<path d="M55.5972 31.1175L57.7262 34.7895L50.6962 37.5233L48.6827 29.2281L55.5972 31.1175Z" fill="#F40009" stroke="black"/>
<path d="M47.946 50.3266L51.1072 49.4213L50.3552 58.444L49.7504 56.7956L47.946 50.3266ZM55.6063 64.19L52.0232 65.3576L51.3241 62.5L54.9303 62.5L55.6063 64.19Z" fill="#F40009" stroke="black"/>
<path d="M58.7928 25.0991L60.8133 20.203L65.9874 30.5093L58.7928 33.3071L58.7928 25.0991Z" fill="#F40009" stroke="black"/>
<path d="M60.8334 47.8516L58.0317 45.7508L64.8255 43.6428L65.8728 49.0372L60.8334 47.8516Z" fill="#F40009" stroke="black"/>
<path d="M29.6841 58.6755L34.9432 54.5L40.0003 54.5L33.6676 60.4105L29.6841 58.6755Z" fill="#F40009" stroke="black"/>
<path d="M68.7895 46.1744L59.6079 35.4721L66.8721 32.6472L76.1509 56.5075L68.9101 59.3233L68.9101 46.5L68.9101 46.3149L68.7895 46.1744Z" fill="white" stroke="black"/>
<path d="M46.9678 51.8372L49.849 63.4168L44.6863 58.2543L39.0394 45.885L46.9678 51.8372Z" fill="white" stroke="black"/>
<path d="M51.2688 51.7024L53.9736 48.9082L59.7817 63.8437L51.2688 60.1711L51.2688 51.7024Z" fill="white" stroke="black"/>
<path d="M65.3842 50.4095L67.7056 56.9096L62.9395 63.0354L57.1011 48.0221L65.3842 50.4095Z" fill="white" stroke="black"/>
<path d="M96.4373 30.2191L105.63 25.7405L109.288 46.6955L104.369 46.5003L96.4373 30.2191Z" fill="#DDDBDB" stroke="black"/>
<rect x="2.46158" y="45.625" width="9.50527" height="4.99674" transform="rotate(-56.5655 2.46158 45.625)" fill="#DDDBDB" stroke="black"/>
<rect x="102.744" y="5.68067" width="9" height="19" transform="rotate(29.2865 102.744 5.68067)" fill="#DDDBDB" stroke="black"/>
<rect x="98.7688" y="30.6473" width="6" height="12" transform="rotate(-15.9357 98.7688 30.6473)" fill="black"/>
</svg>
