<svg width="541" height="312" viewBox="0 0 541 312" fill="none" xmlns="http://www.w3.org/2000/svg">
<g id="fish__dead">
<g id="fish__tail--top">
<path id="Vector 2" d="M502.537 30.6431L422.028 53.9845L394.728 113.003L376.304 166.909L467.789 145.271L502.537 30.6431Z" fill="#5BA1C9" stroke="#3C8DBB" stroke-width="3"/>
</g>
<g id="fish__face--bottom">
<path id="Vector 7" d="M32.9905 174.331L121.979 219.171L108 160.924L20.3597 125.479L32.9905 174.331Z" fill="#5BA1C9" stroke="#3C8DBB" stroke-width="3"/>
</g>
<g id="fish__face--top">
<path id="Vector 13" d="M66.4672 137.316L146.486 87.4535L97.3813 66.9456L18.8337 123.086L66.4672 137.316Z" fill="#5BA1C9" stroke="#3C8DBB" stroke-width="3"/>
</g>
<g id="fish__fin--second">
<path id="Vector 12" d="M132.926 77.4889L203.182 95.5118L179.981 43.2561L112.86 33.918L132.926 77.4889Z" fill="#5BA1C9" stroke="#3C8DBB" stroke-width="3"/>
</g>
<g id="fish__fin--first">
<path id="Vector 14" d="M98.0913 63.2071L125.195 73.3126L115.693 46.316L89.8926 40.688L98.0913 63.2071Z" fill="#5BA1C9" stroke="#3C8DBB" stroke-width="3"/>
</g>
<g id="fish__fin--third">
<path id="Vector 11" d="M202.487 88.0469L291.476 132.887L277.496 74.6403L189.856 39.1943L202.487 88.0469Z" fill="#5BA1C9" stroke="#3C8DBB" stroke-width="3"/>
</g>
<g id="fish__belly--second">
<path id="Vector 8" d="M265.703 253.726L319.844 249.655L287.557 219.162L251.661 228.172L265.703 253.726Z" fill="#5BA1C9" stroke="#3C8DBB" stroke-width="3"/>
</g>
<g id="fish__belly--first">
<path id="Vector 9" d="M152.766 247.114L221.352 246.011L186.331 202.583L122.911 211.09L152.766 247.114Z" fill="#5BA1C9" stroke="#3C8DBB" stroke-width="3"/>
</g>
<g id="fish__fin--side">
<path id="Vector 10" d="M262.839 254.869L208.216 163.775L197.548 210.778L254.62 294.927L262.839 254.869Z" fill="#5BA1C9" stroke="#3C8DBB" stroke-width="3"/>
</g>
<g id="fish__belly--fourth">
<path id="Vector 6" d="M282.402 199.733L371.596 177.946L311.209 136.158L237.756 159.419L282.402 199.733Z" fill="#5BA1C9" stroke="#3C8DBB" stroke-width="3"/>
</g>
<g id="fish__shell--first">
<path id="Vector 24" d="M119.281 186.8L143.857 179.366L128.609 165.687L114.319 168.291L119.281 186.8Z" fill="#5BA1C9" stroke="#3C8DBB" stroke-width="3"/>
<path id="Vector 22" d="M115.262 161.148L156.158 151.317L138.068 134.259L91.9333 147.369L115.262 161.148Z" fill="#5BA1C9" stroke="#3C8DBB" stroke-width="3"/>
<path id="Vector 20" d="M81.9612 145.727L102.536 138.762L87.9869 129.637L74.4371 137.034L81.9612 145.727Z" fill="#5BA1C9" stroke="#3C8DBB" stroke-width="3"/>
<path id="Vector 18" d="M110.605 137.269L153.281 124.392L127.624 105.41L93.1935 126.871L110.605 137.269Z" fill="#5BA1C9" stroke="#3C8DBB" stroke-width="3"/>
</g>
<g id="fish__shell--second">
<path id="Vector 28" d="M185.751 194.286L199.174 188.939L192.625 172.59L167.566 178.766L185.751 194.286Z" fill="#5BA1C9" stroke="#3C8DBB" stroke-width="3"/>
<path id="Vector 25" d="M124.532 206.983L183.555 197.238L168.858 185.37L162.422 180.508L119.487 190.727L124.532 206.983Z" fill="#5BA1C9" stroke="#3C8DBB" stroke-width="3"/>
<path id="Vector 23" d="M150.443 178.742L189.333 168.788L167.197 151.995L130.816 162.104L150.443 178.742Z" fill="#5BA1C9" stroke="#3C8DBB" stroke-width="3"/>
<path id="Vector 19" d="M157.455 145.293L198.635 132.174L179.845 118.31L146.159 133.728L157.455 145.293Z" fill="#5BA1C9" stroke="#3C8DBB" stroke-width="3"/>
<path id="Vector 17" d="M152.006 119.239L195.584 108.066L169.025 87.3801L129.462 102.203L152.006 119.239Z" fill="#5BA1C9" stroke="#3C8DBB" stroke-width="3"/>
</g>
<g id="fish__shell--third">
<path id="Vector 15" d="M241.27 151.405L288.402 138.462L259.248 121.133L217.317 131.415L241.27 151.405Z" fill="#5BA1C9" stroke="#3C8DBB" stroke-width="3"/>
<path id="Vector 29" d="M222.026 179.028L245.859 175.08L229.665 159.951L214.799 164.181L222.026 179.028Z" fill="#5BA1C9" stroke="#3C8DBB" stroke-width="3"/>
<path id="Vector 27" d="M238.954 200.115L266.943 192.591L247.66 178.546L225.675 183.881L238.954 200.115Z" fill="#5BA1C9" stroke="#3C8DBB" stroke-width="3"/>
<path id="Vector 26" d="M250.801 223.298L285.746 214.429L264.373 197.696L237.492 204.669L250.801 223.298Z" fill="#5BA1C9" stroke="#3C8DBB" stroke-width="3"/>
<path id="Vector 21" d="M192.51 164.937L236.089 153.764L209.53 133.078L169.967 147.901L192.51 164.937Z" fill="#5BA1C9" stroke="#3C8DBB" stroke-width="3"/>
<path id="Vector 16" d="M203.684 130.646L247.263 119.473L222.562 103.446L183.539 115.556L203.684 130.646Z" fill="#5BA1C9" stroke="#3C8DBB" stroke-width="3"/>
</g>
<g id="fish__fin--fourth">
<path id="Vector 5" d="M343.733 123.241L285.039 78.4826L293.557 120.157L370.157 168.588L343.733 123.241Z" fill="#5BA1C9" stroke="#3C8DBB" stroke-width="3"/>
</g>
<g id="fish__belly--third">
<path id="Vector 4" d="M373.728 184.238L284.784 205.518L323.509 250.308L396.138 229.338L373.728 184.238Z" fill="#5BA1C9" stroke="#3C8DBB" stroke-width="3"/>
</g>
<g id="fish__tail--bottom">
<path id="Vector 3" d="M493.037 201.927L375.832 174.594L415.731 254.719L525.449 280.569L493.037 201.927Z" fill="#5BA1C9" stroke="#3C8DBB" stroke-width="3"/>
</g>
<g id="fish__eye">
<ellipse id="Ellipse 2" rx="11.0595" ry="10.2682" transform="matrix(-0.998116 -0.0613623 -0.0613623 0.998116 86.2388 100.723)" fill="#5BA1C9"/>
</g>
<g id="fish__eye--dead">
<rect id="Rectangle 353" width="5.71828" height="29.5079" transform="matrix(0.918667 -0.395033 0.635314 0.772254 75 92.2588)" fill="#2F54B4"/>
<rect id="Rectangle 354" width="5.79538" height="28.9614" transform="matrix(0.936492 0.35069 -0.58239 0.81291 91.8668 90)" fill="#2F54B4"/>
</g>
</g>
</svg>
