<svg width="527" height="282" viewBox="0 0 527 282" fill="none" xmlns="http://www.w3.org/2000/svg">
<g id="fish__eye">
<g id="fish__tail--top">
<path id="Vector 2" d="M488.376 9.40234L409.355 35.3696L384.712 93.9012L368.674 147.099L458.672 122.346L488.376 9.40234Z" fill="#5BA1C9" stroke="#3C8DBB" stroke-width="3"/>
</g>
<g id="fish__face--bottom">
<path id="Vector 7" d="M27.8289 168.203L118.147 208.236L101.803 152.125L13.2205 121.178L27.8289 168.203Z" fill="#5BA1C9" stroke="#3C8DBB" stroke-width="3"/>
</g>
<g id="fish__face--top">
<path id="Vector 13" d="M59.5366 130.832L136.953 79.0776L87.2935 61.1079L11.6031 118.911L59.5366 130.832Z" fill="#5BA1C9" stroke="#3C8DBB" stroke-width="3"/>
</g>
<g id="fish__fin--second">
<path id="Vector 12" d="M123.059 69.93L193.633 84.6266L168.377 34.7174L101.284 28.3447L123.059 69.93Z" fill="#5BA1C9" stroke="#3C8DBB" stroke-width="3"/>
</g>
<g id="fish__fin--first">
<path id="Vector 14" d="M87.8416 57.442L115.2 66.1793L104.621 40.2945L78.7462 35.8613L87.8416 57.442Z" fill="#5BA1C9" stroke="#3C8DBB" stroke-width="3"/>
</g>
<g id="fish__fin--third">
<path id="Vector 11" d="M192.627 77.3923L282.945 117.425L266.601 61.3144L178.019 30.3672L192.627 77.3923Z" fill="#5BA1C9" stroke="#3C8DBB" stroke-width="3"/>
</g>
<g id="fish__belly--second">
<path id="Vector 8" d="M262.423 236.048L316.052 229.898L282.684 201.533L247.392 211.751L262.423 236.048Z" fill="#5BA1C9" stroke="#3C8DBB" stroke-width="3"/>
</g>
<g id="fish__belly--first">
<path id="Vector 9" d="M149.917 234.18L218.025 230.334L181.396 189.492L118.733 200.334L149.917 234.18Z" fill="#5BA1C9" stroke="#3C8DBB" stroke-width="3"/>
</g>
<g id="fish__fin--side">
<path id="Vector 10" d="M259.625 237.277L201.509 150.847L192.888 197.014L253.144 276.588L259.625 237.277Z" fill="#5BA1C9" stroke="#3C8DBB" stroke-width="3"/>
</g>
<g id="fish__belly--fourth">
<path id="Vector 6" d="M276.743 182.837L364.46 158.03L302.692 119.81L230.68 145.414L276.743 182.837Z" fill="#5BA1C9" stroke="#3C8DBB" stroke-width="3"/>
</g>
<g id="fish__shell--first">
<path id="Vector 24" d="M114.103 176.846L138.211 168.619L122.483 155.925L108.392 159.037L114.103 176.846Z" fill="#5BA1C9" stroke="#3C8DBB" stroke-width="3"/>
<path id="Vector 22" d="M109.028 152.048L149.254 140.828L130.559 124.962L85.2661 139.583L109.028 152.048Z" fill="#5BA1C9" stroke="#3C8DBB" stroke-width="3"/>
<path id="Vector 20" d="M75.2875 138.389L95.4394 130.779L80.5979 122.489L67.4447 130.234L75.2875 138.389Z" fill="#5BA1C9" stroke="#3C8DBB" stroke-width="3"/>
<path id="Vector 18" d="M103.395 129.001L145.261 114.746L118.966 97.313L85.6553 119.587L103.395 129.001Z" fill="#5BA1C9" stroke="#3C8DBB" stroke-width="3"/>
</g>
<g id="fish__shell--second">
<path id="Vector 28" d="M180.47 181.443L193.584 175.697L186.387 160.054L161.746 167.076L180.47 181.443Z" fill="#5BA1C9" stroke="#3C8DBB" stroke-width="3"/>
<path id="Vector 25" d="M120.17 196.273L178.412 184.404L163.308 173.451L156.708 168.979L114.472 180.659L120.17 196.273Z" fill="#5BA1C9" stroke="#3C8DBB" stroke-width="3"/>
<path id="Vector 23" d="M144.729 167.746L182.956 156.487L160.252 141.043L124.525 152.35L144.729 167.746Z" fill="#5BA1C9" stroke="#3C8DBB" stroke-width="3"/>
<path id="Vector 19" d="M150.289 134.914L190.658 120.484L171.402 107.753L138.577 124.117L150.289 134.914Z" fill="#5BA1C9" stroke="#3C8DBB" stroke-width="3"/>
<path id="Vector 17" d="M143.777 109.783L186.611 97.1494L159.348 78.0947L120.657 94.1172L143.777 109.783Z" fill="#5BA1C9" stroke="#3C8DBB" stroke-width="3"/>
</g>
<g id="fish__shell--third">
<path id="Vector 15" d="M233.835 137.474L280.126 122.975L250.426 107.291L209.19 118.991L233.835 137.474Z" fill="#5BA1C9" stroke="#3C8DBB" stroke-width="3"/>
<path id="Vector 29" d="M215.875 165.129L239.392 160.324L222.662 146.258L208.068 150.975L215.875 165.129Z" fill="#5BA1C9" stroke="#3C8DBB" stroke-width="3"/>
<path id="Vector 27" d="M233.584 184.965L261.081 176.511L241.328 163.625L219.705 169.705L233.584 184.965Z" fill="#5BA1C9" stroke="#3C8DBB" stroke-width="3"/>
<path id="Vector 26" d="M246.334 207.043L280.685 196.999L258.742 181.582L232.323 189.454L246.334 207.043Z" fill="#5BA1C9" stroke="#3C8DBB" stroke-width="3"/>
<path id="Vector 21" d="M185.951 152.612L228.786 139.978L201.523 120.924L162.832 136.946L185.951 152.612Z" fill="#5BA1C9" stroke="#3C8DBB" stroke-width="3"/>
<path id="Vector 16" d="M195.611 118.794L238.445 106.16L213.225 91.5643L174.958 104.925L195.611 118.794Z" fill="#5BA1C9" stroke="#3C8DBB" stroke-width="3"/>
</g>
<g id="fish__fin--fourth">
<path id="Vector 5" d="M334.468 105.925L274.258 64.7458L284.478 104.952L362.636 148.981L334.468 105.925Z" fill="#5BA1C9" stroke="#3C8DBB" stroke-width="3"/>
</g>
<g id="fish__belly--third">
<path id="Vector 4" d="M366.843 164.066L279.354 188.369L319.722 230.386L391.011 207.045L366.843 164.066Z" fill="#5BA1C9" stroke="#3C8DBB" stroke-width="3"/>
</g>
<g id="fish__tail--bottom">
<path id="Vector 3" d="M486.147 176.455L368.528 154.597L411.55 230.949L521.668 251.667L486.147 176.455Z" fill="#5BA1C9" stroke="#3C8DBB" stroke-width="3"/>
</g>
<g id="fish__eye_2" style="mix-blend-mode:multiply">
<ellipse id="Ellipse 2" rx="11" ry="10" transform="matrix(-0.999811 -0.019459 -0.019459 0.999811 77.6433 94.4257)" fill="#3C8DBB"/>
</g>
</g>
</svg>
