<svg width="424" height="179" viewBox="0 0 524 279" fill="none" xmlns="http://www.w3.org/2000/svg">
<g id="Group 2">
<g id="fish__tail--top">
<path id="Vector 2" d="M483.18 3L404.68 30.5L381.18 89.5L366.18 143L455.68 116.5L483.18 3Z" fill="#5BA1C9" stroke="#3C8DBB" stroke-width="3"/>
</g>
<g id="fish__face--bottom">
<path id="Vector 7" d="M25.8105 170.732L116.89 209L99.4576 153.218L10.2898 124L25.8105 170.732Z" fill="#5BA1C9" stroke="#3C8DBB" stroke-width="3"/>
</g>
<g id="fish__face--top">
<path id="Vector 13" d="M56.785 132.751L133.18 79.5001L83.1799 62.5001L8.62866 121.765L56.785 132.751Z" fill="#5BA1C9" stroke="#3C8DBB" stroke-width="3"/>
</g>
<g id="fish__fin--second">
<path id="Vector 12" d="M119.11 70.6252L189.956 83.9457L163.735 34.5375L96.5304 29.4716L119.11 70.6252Z" fill="#5BA1C9" stroke="#3C8DBB" stroke-width="3"/>
</g>
<g id="fish__fin--first">
<path id="Vector 14" d="M83.6567 58.8246L111.18 67.0279L100.099 41.3539L74.1431 37.425L83.6567 58.8246Z" fill="#5BA1C9" stroke="#3C8DBB" stroke-width="3"/>
</g>
<g id="fish__fin--third">
<path id="Vector 11" d="M188.811 76.7319L279.89 115L262.458 59.2176L173.29 30L188.811 76.7319Z" fill="#5BA1C9" stroke="#3C8DBB" stroke-width="3"/>
</g>
<g id="fish__belly--second">
<path id="Vector 8" d="M261.68 234L315.18 226.808L281.266 199.097L246.18 210L261.68 234Z" fill="#5BA1C9" stroke="#3C8DBB" stroke-width="3"/>
</g>
<g id="fish__belly--first">
<path id="Vector 9" d="M149.159 234.321L217.18 229.15L179.763 189.029L117.322 201.088L149.159 234.321Z" fill="#5BA1C9" stroke="#3C8DBB" stroke-width="3"/>
</g>
<g id="fish__fin--side">
<path id="Vector 10" d="M258.907 235.283L199.121 150L191.399 196.326L253.192 274.713L258.907 235.283Z" fill="#5BA1C9" stroke="#3C8DBB" stroke-width="3"/>
</g>
<g id="fish__belly--fourth">
<path id="Vector 6" d="M274.963 180.519L362.18 154.01L299.68 117L228.18 144L274.963 180.519Z" fill="#5BA1C9" stroke="#3C8DBB" stroke-width="3"/>
</g>
<g id="fish__shell--first">
<path id="Vector 24" d="M112.236 177.695L136.18 169L120.207 156.615L106.18 160L112.236 177.695Z" fill="#5BA1C9" stroke="#3C8DBB" stroke-width="3"/>
<path id="Vector 22" d="M106.68 153L146.68 141L127.68 125.5L82.6799 141L106.68 153Z" fill="#5BA1C9" stroke="#3C8DBB" stroke-width="3"/>
<path id="Vector 20" d="M72.6799 140L92.6799 132L77.6799 124L64.6799 132L72.6799 140Z" fill="#5BA1C9" stroke="#3C8DBB" stroke-width="3"/>
<path id="Vector 18" d="M100.6 130.067L142.18 115L115.551 98.0821L82.6799 121L100.6 130.067Z" fill="#5BA1C9" stroke="#3C8DBB" stroke-width="3"/>
</g>
<g id="fish__shell--second">
<path id="Vector 28" d="M178.68 181L191.68 175L184.18 159.5L159.68 167L178.68 181Z" fill="#5BA1C9" stroke="#3C8DBB" stroke-width="3"/>
<path id="Vector 25" d="M118.68 197L176.68 184L161.366 173.342L154.68 169L112.68 181.5L118.68 197Z" fill="#5BA1C9" stroke="#3C8DBB" stroke-width="3"/>
<path id="Vector 23" d="M142.68 168L180.68 156L157.68 141L122.18 153L142.68 168Z" fill="#5BA1C9" stroke="#3C8DBB" stroke-width="3"/>
<path id="Vector 19" d="M147.599 135.067L187.68 119.854L168.18 107.5L135.68 124.5L147.599 135.067Z" fill="#5BA1C9" stroke="#3C8DBB" stroke-width="3"/>
<path id="Vector 17" d="M140.6 110.067L183.18 96.6026L155.551 78.082L117.18 94.8544L140.6 110.067Z" fill="#5BA1C9" stroke="#3C8DBB" stroke-width="3"/>
</g>
<g id="fish__shell--third">
<path id="Vector 15" d="M231.18 136L277.18 120.603L247.18 105.5L206.18 118L231.18 136Z" fill="#5BA1C9" stroke="#3C8DBB" stroke-width="3"/>
<path id="Vector 29" d="M213.761 164L237.18 158.738L220.18 145L205.68 150L213.761 164Z" fill="#5BA1C9" stroke="#3C8DBB" stroke-width="3"/>
<path id="Vector 27" d="M231.853 183.487L259.18 174.5L239.18 162L217.68 168.5L231.853 183.487Z" fill="#5BA1C9" stroke="#3C8DBB" stroke-width="3"/>
<path id="Vector 26" d="M245.03 205.313L279.18 194.603L256.94 179.615L230.68 188L245.03 205.313Z" fill="#5BA1C9" stroke="#3C8DBB" stroke-width="3"/>
<path id="Vector 21" d="M183.6 152.067L226.18 138.603L198.551 120.082L160.18 136.854L183.6 152.067Z" fill="#5BA1C9" stroke="#3C8DBB" stroke-width="3"/>
<path id="Vector 16" d="M192.6 118.067L235.18 104.603L209.68 90.5002L171.68 104.603L192.6 118.067Z" fill="#5BA1C9" stroke="#3C8DBB" stroke-width="3"/>
</g>
<g id="fish__fin--fourth">
<path id="Vector 5" d="M331.18 102.5L270.18 62.5L281.18 102.5L360.18 145L331.18 102.5Z" fill="#5BA1C9" stroke="#3C8DBB" stroke-width="3"/>
</g>
<g id="fish__belly--third">
<path id="Vector 4" d="M364.68 160L277.68 186L318.858 227.223L389.68 202.5L364.68 160Z" fill="#5BA1C9" stroke="#3C8DBB" stroke-width="3"/>
</g>
<g id="fish__tail--bottom">
<path id="Vector 3" d="M484.203 170.065L366.18 150.5L410.68 226L521.18 244.571L484.203 170.065Z" fill="#5BA1C9" stroke="#3C8DBB" stroke-width="3"/>
</g>
<g id="fish__eye">
<ellipse id="Ellipse 2" rx="11" ry="10" transform="matrix(-1 0 0 1 74.1799 96)" fill="#5BA1C9"/>
</g>
</g>
</svg>
