<svg width="428" height="257" viewBox="0 0 428 257" fill="none" xmlns="http://www.w3.org/2000/svg">
<g id="fiskegarn">
<path id="bunn sirkel" d="M292.503 235.6C292.55 237.033 291.444 239.071 287.674 241.421C284.047 243.681 278.594 245.807 271.609 247.627C257.677 251.258 238.205 253.532 216.52 253.532C194.836 253.532 175.217 251.258 161.05 247.627C153.947 245.807 148.357 243.681 144.583 241.421C140.662 239.071 139.424 237.033 139.378 235.6C139.332 234.167 140.438 232.129 144.207 229.78C147.835 227.519 153.287 225.393 160.272 223.573C174.205 219.942 193.677 217.669 215.361 217.669C237.046 217.669 256.665 219.942 270.832 223.573C277.934 225.393 283.524 227.519 287.298 229.78C291.219 232.129 292.457 234.167 292.503 235.6Z" stroke="black" stroke-width="5"/>
<path id="top sirkel" d="M413.119 25.0244C413.121 25.1011 413.108 25.3762 412.685 25.887C412.248 26.4145 411.48 27.0561 410.263 27.7719C407.828 29.2031 404.053 30.6666 398.949 32.1041C388.777 34.9682 373.891 37.5761 355.324 39.7759C318.225 44.1715 266.794 46.8968 209.842 46.8968C152.889 46.8968 101.282 44.1715 63.8987 39.7759C45.1898 37.5761 30.1352 34.9682 19.7787 32.1041C14.5809 30.6666 10.7121 29.2031 8.18444 27.7719C6.92044 27.0561 6.11136 26.4145 5.64045 25.887C5.1845 25.3762 5.15352 25.1011 5.15104 25.0244C5.14856 24.9477 5.16176 24.6726 5.5847 24.1618C6.02151 23.6343 6.78911 22.9927 8.00684 22.277C10.442 20.8457 14.2162 19.3822 19.321 17.9447C29.4924 15.0806 44.3785 12.4727 62.9452 10.2729C100.045 5.87729 151.475 3.15202 208.428 3.15202C265.381 3.15202 316.987 5.87729 354.371 10.2729C373.08 12.4727 388.134 15.0806 398.491 17.9447C403.689 19.3822 407.557 20.8457 410.085 22.277C411.349 22.9927 412.158 23.6343 412.629 24.1618C413.085 24.6726 413.116 24.9477 413.119 25.0244Z" stroke="black" stroke-width="5"/>
<g id="innhold">
<path id="Polygon 34" d="M70.2221 49.3954L54.3809 106.724L2.42994 31.6041L36.4312 40.6802L36.4312 40.6802L36.4364 40.6816L70.2221 49.3954Z" stroke="black"/>
<path id="Polygon 4" d="M383.16 39.4116L419.389 31.7448L371.766 106.8L347.673 45.5854L383.138 39.4158L383.149 39.4139L383.16 39.4116Z" stroke="black"/>
<path id="Polygon 5" d="M335.509 169.562L306.303 119.685L370.507 108.284L335.509 169.562Z" stroke="black"/>
<path id="Polygon 7" d="M55.0682 110.57L119.447 124.224L90.9304 173.09L55.0682 110.57Z" stroke="black"/>
<path id="Polygon 15" d="M124.014 119.993L181.984 129.356L158.731 173.703L124.014 119.993Z" stroke="black"/>
<path id="Polygon 16" d="M148.452 50.1468L120.642 114.756L76.3626 45.1775L114.951 48.433L114.961 48.4339L114.971 48.4344L148.452 50.1468Z" stroke="black"/>
<path id="Polygon 28" d="M199.718 186.433L210.724 162.84L227.226 185.387L212.419 185.836L212.419 185.836L212.409 185.836L199.718 186.433Z" stroke="black"/>
<path id="Polygon 29" d="M199.802 157.271L211.605 158.266L196.412 179.56L184.255 156.466L199.802 157.271Z" stroke="black"/>
<path id="Polygon 31" d="M213.945 156.314L237.597 126.382L246.111 140.977L246.111 140.977L246.116 140.984L250.03 147.456L244.22 157.466L226.786 157.049L213.945 156.314Z" stroke="black"/>
<path id="Polygon 32" d="M184.295 133.682L184.296 133.681L188.634 125.743L211.912 155.851L190.732 154.225L190.728 154.225L182.959 153.572L178.26 144.622L184.295 133.682Z" stroke="black"/>
<path id="Polygon 30" d="M242.481 159.784L227.921 182.785L214.671 158.982L229.21 159.528L229.21 159.528L229.221 159.528L242.481 159.784Z" stroke="black"/>
<path id="Polygon 24" d="M158.385 122.356L124.81 117.774L138.977 86.4147L138.977 86.4148L138.981 86.406L146.328 69.0608L146.331 69.0542L152.914 54.2595L185.687 126.586L158.396 122.358L158.396 122.358L158.385 122.356Z" stroke="black"/>
<path id="Polygon 36" d="M215.193 123.5L189.543 123.311L197.919 99.5674L197.919 99.5674L197.922 99.5586L202.222 86.3615L202.222 86.3615L202.224 86.3529L211.918 54.066L236.26 124.018L215.204 123.5L215.204 123.5L215.193 123.5Z" stroke="black"/>
<path id="Polygon 38" d="M241.381 52.4528L266.992 54.1L256.671 77.2557L256.671 77.2557L256.667 77.2644L251.283 90.1615L251.283 90.1615L251.28 90.1699L238.928 121.783L220.357 50.7369L241.371 52.4521L241.371 52.4522L241.381 52.4528Z" stroke="black"/>
<path id="Polygon 39" d="M180.838 51.8754L206.469 51.4503L198.923 75.4083L198.923 75.4083L198.921 75.4172L195.083 88.7219L195.083 88.7219L195.08 88.7306L186.518 121.255L159.784 51.8611L180.828 51.8754L180.828 51.8755L180.838 51.8754Z" stroke="black"/>
<path id="Polygon 26" d="M179.235 177.643L161.431 173.622L169.49 160.36L169.49 160.36L169.496 160.35L172.237 155.554L172.237 155.554L172.243 155.543L174.971 150.44L176.567 147.728L193.334 181.046L179.243 177.644L179.243 177.644L179.235 177.643Z" stroke="black"/>
<path id="Polygon 27" d="M260.908 159.155L269.597 174.101L250.375 177.86L250.375 177.86L250.362 177.862L243.609 179.324L243.609 179.324L243.596 179.327L236.544 181.011L232.766 181.79L254.292 147.246L260.903 159.148L260.903 159.148L260.908 159.155Z" stroke="black"/>
<path id="Polygon 6" d="M299.96 233.406L270.754 183.528L334.958 172.127L299.96 233.406Z" stroke="black"/>
<path id="Polygon 13" d="M271.149 188.225L294.46 228.56L276.216 221.231L276.188 221.22L276.16 221.211L248.641 213.01L266.832 181.679L271.149 188.225Z" stroke="black"/>
<path id="Polygon 14" d="M143.419 220.215L162.205 178.598L166.258 186.897L166.258 186.897L166.26 186.902L170.769 195.837L179.159 213.2L162.075 218.849L162.063 218.853L162.051 218.857L140.88 227.017L143.419 220.215Z" stroke="black"/>
<path id="Polygon 19" d="M190.614 197.006L181.309 212.16L179.297 207.995L179.296 207.995L164.238 176.914L172.147 178.711L172.147 178.711L172.154 178.712L180.856 180.587L197.376 184.402L190.614 197.006Z" stroke="black"/>
<path id="Polygon 21" d="M198.303 188.627L184.583 212.808L182.314 216.399L197.612 214.725L210.246 213.767L204.038 199.799L201.493 194.478L198.303 188.627Z" stroke="black"/>
<path id="Polygon 37" d="M212.628 214.537L227 190.63L229.367 187.085L214.019 188.474L201.354 189.197L207.191 203.268L209.594 208.632L212.628 214.537Z" stroke="black"/>
<path id="Polygon 22" d="M249.135 215.196L232.313 191.548L229.887 187.718L223.365 199.671L216.844 211.659L234.896 212.725L241.579 214.032L249.135 215.196Z" stroke="black"/>
<path id="Polygon 20" d="M264.778 180.434L246.919 209.656L242.701 203.537L242.701 203.537L242.697 203.531L238.062 197.008L229.571 184.567L246.156 180.641L267.124 176.605L264.778 180.434L264.778 180.434Z" stroke="black"/>
<path id="Polygon 8" d="M91.5394 175.033L157.114 182.96L135.087 234.208L91.5394 175.033Z" stroke="black"/>
<path id="Polygon 9" d="M304.033 121.261L331.75 170.116L268.888 181.105L304.033 121.261Z" stroke="black"/>
<path id="Polygon 18" d="M271.021 168.92L245.113 124.723L302.472 115.063L271.021 168.92Z" stroke="black"/>
<path id="Polygon 10" d="M157.177 180.576L96.0296 172.406L121.864 126.42L157.177 180.576Z" stroke="black"/>
<path id="Polygon 35" d="M203.259 140.234L190.757 124.763L235.809 125.663L213.335 152.791L203.26 140.235L203.259 140.234Z" stroke="black"/>
<path id="Polygon 11" d="M122.745 122.513L55.8397 108.542L75.61 48.4479L122.745 122.513Z" stroke="black"/>
<path id="Polygon 12" d="M345.314 50.3567L368.13 106.063L306.788 117.367L345.314 50.3567Z" stroke="black"/>
<path id="Polygon 25" d="M274.031 53.0455L298.299 111.631L243.044 121.24L274.031 53.0455Z" stroke="black"/>
<path id="Polygon 17" d="M304.865 115.07L280.342 50.096L344.484 46.0546L304.865 115.07Z" stroke="black"/>
</g>
</g>
</svg>
