<svg width="229" height="342" viewBox="0 0 229 342" fill="none" xmlns="http://www.w3.org/2000/svg">
<g id="jellyfish__big">
<g id="Group 15">
<g id="jellyfish__leg--one">
<path id="Vector 35" d="M56.0844 128.057C49.9251 129.551 31.5555 130.095 28.5289 138.502C26.7902 143.331 27.002 153.23 31.1955 156.28C39.9913 162.677 37.7767 177.266 41.1955 186.057C43.8787 192.957 48.4034 196.277 48.0844 203.613C47.3822 219.764 38.4091 240.638 32.9733 256.169C27.9742 270.452 21.1718 302.116 36.0844 312.057" stroke="black" stroke-width="3" stroke-linecap="round"/>
</g>
<g id="jellyfish__leg--two">
<path id="Vector 36" d="M82 132.057C82 150.954 73.4539 156.481 66.4445 172.057C63.0446 179.613 74.377 188.178 78 193.613C79.7741 196.274 89.9185 202.236 89.6667 204.502C88.4695 215.277 83.217 226.143 81.5556 237.169C80.7649 242.416 78.7338 248.05 76.8889 253.057C73.4596 262.365 67.7543 268.686 65.8889 278.946C63.1034 294.267 58.0928 314.15 70 326.057" stroke="black" stroke-width="3" stroke-linecap="round"/>
</g>
<g id="jellyfish__leg--six">
<path id="Vector 37" d="M182 128.057C182 145.048 182.117 149.006 195.667 159.169C204.914 166.104 207.973 174.769 205.111 186.057C202.85 194.975 197.942 202.553 196.444 211.835C195.774 215.995 195.722 219.183 194 223.057C189.35 233.519 183.749 244.592 182.111 256.057C180.736 265.685 185.547 280.095 193 286.057C196.787 289.087 194 306.73 194 311.169C194 321.389 192.485 330.117 190 340.057" stroke="black" stroke-width="3" stroke-linecap="round"/>
</g>
<g id="jellyfish__leg--five">
<path id="Vector 38" d="M162 132.057C162.316 143.601 161.971 178.843 173.111 186.502C175.435 188.1 178 196.049 178 199.057C178 207.129 171.636 214.152 169.556 222.057C167.459 230.023 164.788 237.502 162 245.169C156.985 258.959 161.031 282.151 170.889 293.169C179.327 302.599 176.063 325.678 174 338.057" stroke="black" stroke-width="3" stroke-linecap="round"/>
</g>
<g id="jellyfish__leg--four">
<path id="Vector 39" d="M134 134.057C143.349 151.198 152.042 168.212 159.556 186.057C160.837 189.102 160.508 194.209 158.444 196.502C153.384 202.125 149.231 210.126 146 216.946C142.59 224.145 134.404 235.979 134 244.057C133.145 261.161 141.545 278.371 149.556 292.724C154.321 301.262 156.412 327.893 146 332.057" stroke="black" stroke-width="3" stroke-linecap="round"/>
</g>
<g id="jellyfish__leg--three">
<path id="Vector 40" d="M114 138.057C117.928 148.97 133.051 168.71 125.111 181.613C119.733 190.353 118.095 201.209 113.111 210.724C109.83 216.989 110 220.55 110 227.946C110 243.733 120 255.851 120 272.169C120 295.205 110 317.156 110 340.057" stroke="black" stroke-width="3" stroke-linecap="round"/>
</g>
<path id="Rectangle 179" d="M18 54.0575L104 2.05746L198 40.0575L226 120.057L114 138.057L0 120.057L18 54.0575Z" fill="url(#paint0_radial_0_1)" fill-opacity="0.49"/>
</g>
<path id="Rectangle 188" d="M191.494 88.8036L191.496 88.7906L191.497 88.7775L196.295 43.996L228.29 117.817L185.605 125.442L191.494 88.8036Z" stroke="black" stroke-opacity="0.38"/>
<path id="Rectangle 190" d="M2.58296 119.121L6.98461 93.6894L22.6781 52.0036L92.2461 129.41L2.58296 119.121Z" stroke="black" stroke-opacity="0.38"/>
<path id="Rectangle 191" d="M94.2297 132.057L24.7449 51.1574L59.3192 27.7833L114.669 132.057H94.2297Z" stroke="black" stroke-opacity="0.38"/>
<path id="Rectangle 192" d="M196.446 42.3384L182.577 124.559L150.094 124.557L166.878 27.3118L196.446 42.3384Z" stroke="black" stroke-opacity="0.41"/>
<path id="Rectangle 193" d="M164.418 25.5575L149.28 125.306L113.84 136.761L156.344 25.5575L164.418 25.5575Z" stroke="black" stroke-opacity="0.38"/>
<path id="Rectangle 194" d="M105.149 0.831157L124.982 96.5236L114.902 125.323L61.1723 25.7514L105.149 0.831157Z" stroke="black" stroke-opacity="0.38"/>
<path id="Rectangle 195" d="M154.876 24.3229L140.538 64.865L127.673 91.5483L107.709 2.92755L154.876 24.3229Z" stroke="black" stroke-opacity="0.38"/>
</g>
<defs>
<radialGradient id="paint0_radial_0_1" cx="0" cy="0" r="1" gradientUnits="userSpaceOnUse" gradientTransform="translate(113 46.0575) rotate(4.71475) scale(97.3293 45.4909)">
<stop stop-color="#F5DCDC"/>
<stop offset="0.0001" stop-color="#F5DCDC" stop-opacity="0.840278"/>
<stop offset="0.0002" stop-color="#CB559C"/>
<stop offset="1" stop-color="#DBE0E0" stop-opacity="0.56"/>
</radialGradient>
</defs>
</svg>
