<svg width="211" height="195" viewBox="0 0 311 295" fill="none" xmlns="http://www.w3.org/2000/svg">
<g id="Plastflaske">
<path id="Rectangle 64" d="M211.631 87.5686L218.551 106.839L218.613 107.012L218.772 107.104L228.747 112.835L198.918 122.129L198.484 122.264L198.578 122.71L202.358 140.587L176.868 111.962L198.359 105.59L198.521 105.542L198.621 105.405L211.631 87.5686Z" stroke="black"/>
<path id="Rectangle 70" d="M247.479 102.822L254.42 90.1818L263.347 92.0881L257.713 118.471L248.781 116.563L247.479 102.822Z" stroke="black"/>
<path id="Rectangle 77" d="M232.531 136.864L232.742 137.225L233.134 137.081L249.46 131.079L253.224 135.306L222.604 162.572L207.406 145.504L204.117 124.992L222.415 119.605L232.531 136.864Z" stroke="black"/>
<path id="Rectangle 78" d="M142.203 105.404L141.79 105.173L141.536 105.572L134.191 117.161L125.765 102.058L132.154 92.4773L144.802 81.2146L174.823 114.929L154.126 112.074L142.203 105.404Z" fill="#FF0000" fill-opacity="0.85" stroke="#FF0000"/>
<path id="Rectangle 57" d="M222.288 45.0559L232.518 43.6342L241.318 53.5168L234.991 59.151L229.248 64.2645L213.241 56.2788L222.288 45.0559ZM229.385 67.0596L233.419 64.6096L240.344 66.5406L233.936 72.2468L229.385 67.0596ZM242.21 73.2771L245.1 67.9043L249.396 74.5802L246.822 78.534L242.21 73.2771Z" stroke="black"/>
<path id="Rectangle 57_2" d="M242.049 54.3381L266.322 81.5971L258.896 88.0848L250.58 72.2114L250.525 72.105L250.426 72.0355L234.616 60.8317L242.049 54.3381Z" stroke="black"/>
<path id="Rectangle 58" d="M219.316 45.6596L207.344 56.3202L198.211 54.0758L190.935 50.9701L198.151 49.0204L219.316 45.6596ZM207.272 57.3524L216.218 65.2733L203.424 76.6662L185.011 69.5484L197.518 56.5072L207.272 57.3524ZM243.085 107.394L232.372 110.511L221.77 103.884L214.364 82.9369L230.57 73.6855L253.247 80.7512L243.085 107.394ZM228.968 123.104L232.66 111.561L241.619 111.748L248.638 119.631L247.551 128.28L235.898 130.886L228.968 123.104ZM222.782 62.7757L229.378 70.1829L211.02 82.1192L209.913 74.2357L222.782 62.7757Z" stroke="black"/>
<path id="Rectangle 67" d="M191.081 56.1721L177.602 70.756L177.161 71.2333L177.736 71.5373L201.371 84.0424L194.371 99.2706L170.776 105.872L146.71 78.8461L177.849 51.1173L191.081 56.1721Z" stroke="black"/>
<path id="Rectangle 79" d="M176.811 117.91L204.53 148.311L182.37 147.699L181.905 147.686L181.858 148.149L179.489 171.74L156.189 136.115L156.146 136.048L156.083 135.998L137.767 121.347L143.115 109.072L154.309 115.154L154.393 115.2L154.488 115.211L176.811 117.91Z" fill="#FF0000" fill-opacity="0.7" stroke="#FF0000"/>
<path id="Rectangle 80" d="M185.134 151.306L208.213 150.922L220.696 164.941L207.682 176.53L189.192 185.146L182.974 176.74L183.617 165.637L185.134 151.306Z" fill="#FF0000" fill-opacity="0.85" stroke="#FF0000"/>
<path id="Rectangle 81" d="M124.697 104.792L133.226 120.823L133.273 120.913L133.352 120.976L154.859 138.406L155.32 140.845L142.63 154.713L113.983 122.542L124.697 104.792Z" fill="#FF0000" fill-opacity="0.6" stroke="#FF0000"/>
<path id="Rectangle 82" d="M156.782 142.939L172.649 168.114L172.654 168.121L172.658 168.128L185.051 186.439L175.006 191.071L159.292 173.424L144.296 156.584L156.782 142.939Z" fill="#FF0000" fill-opacity="0.8" stroke="#FF0000"/>
<rect id="Rectangle 83" x="258.402" y="27.5915" width="41" height="29" rx="1.5" transform="rotate(48.3159 258.402 27.5915)" fill="#FF0000" fill-opacity="0.25" stroke="#FF0000"/>
<rect id="Rectangle 84" x="262.392" y="32.0725" width="24" height="14" transform="rotate(48.3159 262.392 32.0725)" fill="#FF0000" fill-opacity="0.7" stroke="#FF0000"/>
<rect id="Rectangle 85" x="243.466" y="40.892" width="9" height="9" transform="rotate(48.3159 243.466 40.892)" fill="#FF0000" stroke="#FF0000"/>
<rect id="Rectangle 86" x="264.48" y="44.9427" width="20" height="19" transform="rotate(48.3159 264.48 44.9427)" fill="#FF0000" fill-opacity="0.45" stroke="#FF0000"/>
<rect id="Rectangle 87" x="256.162" y="29.5867" width="13" height="8" transform="rotate(48.3159 256.162 29.5867)" fill="#FF0000" stroke="#FF0000"/>
<path id="Rectangle 88" d="M122.387 176.317L122.589 176.457L122.823 176.382L150.658 167.487L172.94 192.51L130.976 212.219L93.2362 156.174L122.387 176.317Z" stroke="black"/>
<path id="Rectangle 92" d="M101.275 143.374L112.603 125.503L130.118 145.173L145.259 162.176L123.03 170.404L96.7244 151.899L101.275 143.374Z" stroke="black"/>
<path id="Rectangle 95" d="M88.3832 155.237L89.6684 186.792L89.6809 187.1L89.9611 187.227L120.197 200.969L134.282 221.954L123.405 239.359L106.092 227.988L105.928 227.88L105.735 227.913L90.2723 230.497L56.3927 192.45L64.1559 166.476L88.3832 155.237Z" stroke="black"/>
<path id="Rectangle 96" d="M91.4306 156.934L105.183 177.309L117.533 198.2L91.4555 185.093L91.4306 156.934Z" stroke="black"/>
<path id="Rectangle 98" d="M60.1776 221.512L68.4101 214.181L111.944 258.62L107.218 266.55L98.9665 265.072L60.1776 221.512Z" stroke="black"/>
<path id="Rectangle 99" d="M108.503 251.722L92.6565 233.926L105.197 231.391L113.493 237.764L113.519 237.784L113.548 237.801L121.348 242.283L117.338 249.554L108.503 251.722Z" stroke="black"/>
<path id="Rectangle 100" d="M54.0198 171.704L51.848 191.609L51.8269 191.803L51.9418 191.959L64.2166 208.704L53.2994 226.789L38.789 217.04L25.7112 202.354L31.4121 181.581L54.0198 171.704Z" stroke="black"/>
<rect id="Rectangle 101" x="59.2672" y="225" width="18" height="19" transform="rotate(48.3159 59.2672 225)" stroke="black"/>
<path id="Rectangle 102" d="M75.1545 244.607L85.6454 263.627L85.7143 263.752L85.8386 263.821L98.4316 270.885L69.9353 286.603L62.2205 277.939L54.335 269.084L51.553 253.072L68.1198 255.053L68.4309 255.09L68.6 254.827L75.1545 244.607Z" stroke="black"/>
<path id="Rectangle 103" d="M20.2535 198.53L22.2225 208.109L22.2522 208.253L22.3555 208.358L36.7353 223.003L36.79 223.059L36.8592 223.095L47.5617 228.729L38.7652 236.562L38.3347 236.945L38.7751 237.317L46.7164 244.025L47.9474 261.91L7.94559 216.988L20.2535 198.53Z" stroke="black"/>
</g>
</svg>
