<svg width="244" height="263" viewBox="0 0 244 263" fill="none" xmlns="http://www.w3.org/2000/svg">
<path d="M193.516 255.906L60.8876 262.208C56.9386 262.395 53.0098 261.539 49.4969 259.725L13.2858 241.028C5.49762 237.007 0.753581 228.829 1.12914 220.072L9.95428 14.2916C10.1822 8.97811 15.1244 5.13934 20.3291 6.23324C23.8963 6.98297 26.605 9.89741 27.0921 13.5098L34.5616 68.9044C36.3876 82.4465 49.3386 91.581 62.7082 88.7566L119.752 76.7057C121.281 76.3826 122.84 76.2198 124.403 76.2198H172.53C184.696 76.2198 194.851 66.9341 195.936 54.8165L200.014 9.29399C200.302 6.08544 202.592 3.41202 205.718 2.63546C210.062 1.55642 214.387 4.46959 215.019 8.90093L242.038 198.268C242.95 204.664 241.069 211.144 236.873 216.057L209.558 248.043C205.525 252.765 199.719 255.611 193.516 255.906Z" fill="#4CDD5A" stroke="black"/>
<path d="M154.436 150.505L152.669 152.659L150.866 154.323L145.389 151.92L142.666 154.171L141.487 157.746L146.008 160.247L153.693 159.957L156.302 162.652L156.925 164.563L157.694 168.433L154.676 173.182L147.651 175.872L139.856 174.692L137.138 170.527L139.42 168.814L142.543 171.951L147.874 172.394L151.958 169.017L151.667 165.099L145.452 165.732L137.512 162.593L136.93 154.756L141.237 147.901L147.01 147.807L154.436 150.505Z" fill="white" stroke="black"/>
<path d="M62.0777 160.526L65.5265 186.775H70.2686L68.1131 172.641L74.1484 171.127L75.0106 164.06L70.2686 159.012L62.0777 160.526Z" fill="white" stroke="black"/>
<path d="M182.728 82.7519L179.011 94.3597L184.401 105.527L199.528 106.485V81.3124L182.728 82.7519Z" fill="white" stroke="black"/>
<path d="M66.8147 130.77L72.6716 119.45L80.0563 118.153L70.6703 135.456L70.477 135.812L70.7671 136.069L78.7833 143.161L83.9691 148.527L78.5146 149.486L68.1166 141.255L67.1469 140.487L67.3079 141.743L68.5252 151.241L62.2161 152.35L60.3228 137.577L58.3228 121.972L64.6319 120.863L65.8847 130.639L66.0829 132.185L66.8147 130.77Z" fill="white" stroke="black"/>
<rect x="0.556015" y="0.409404" width="7.75226" height="30.9065" transform="matrix(0.984908 -0.173078 0.127122 0.991887 80.5997 117.642)" fill="white" stroke="black"/>
<rect x="0.556015" y="0.409404" width="7.75226" height="30.9065" transform="matrix(0.984908 -0.173078 0.127122 0.991887 120.385 110.651)" fill="white" stroke="black"/>
<path d="M99.8793 145.955L89.3347 116.583L97.2918 115.185L102.423 136.708L102.812 123.866L109.111 122.759L114.691 134.553L113.869 112.272L120.168 111.165L118.777 142.634L113.473 143.566L108.296 132.27L105.516 144.965L99.8793 145.955Z" fill="white" stroke="black"/>
<rect x="219.496" y="183.237" width="18.8304" height="25.2495" fill="#2FCF35" stroke="black"/>
<rect x="216.91" y="164.055" width="18.8304" height="15.1536" fill="#2FCF35" stroke="black"/>
<rect x="211.737" y="140.834" width="18.8304" height="20.2015" fill="#2FCF35" stroke="black"/>
<rect x="-0.45758" y="0.552443" width="22.1939" height="21.4524" transform="matrix(0.0789891 0.996875 -0.99415 0.108011 151.777 232.147)" fill="#2FCF35" stroke="black"/>
<rect x="-0.472783" y="0.534869" width="22.2091" height="21.4323" transform="matrix(0.0519046 0.998652 -0.99747 0.0710855 127.843 234.448)" fill="#2FCF35" stroke="black"/>
<rect x="-0.496934" y="0.504171" width="22.2206" height="21.4172" transform="matrix(0.00609713 0.999981 -0.999965 0.00836002 103.473 236.233)" fill="#2FCF35" stroke="black"/>
<rect x="-0.500781" y="0.498927" width="22.2207" height="21.417" transform="matrix(-0.00156409 0.999999 -0.999998 -0.00214462 79.3552 236.285)" fill="#2FCF35" stroke="black"/>
<rect x="0.595947" y="-0.318319" width="21.9589" height="21.759" transform="matrix(0.248604 -0.968605 0.943291 0.331968 30.7007 246.98)" fill="white" stroke="black"/>
<path d="M55.5653 229.805L34.8451 221.718L28.7412 206.47L45.3977 206.47L55.5653 229.805Z" fill="white" stroke="black"/>
<rect x="0.64938" y="0.00797448" width="20.5501" height="23.456" transform="matrix(0.658717 -0.752391 0.640042 0.76834 4.52747 223.672)" fill="#2FCF35" stroke="black"/>
<rect x="4.81096" y="180.208" width="18.8304" height="25.2495" fill="#2FCF35" stroke="black"/>
<rect x="4.81096" y="149.92" width="18.8304" height="25.2495" fill="#2FCF35" stroke="black"/>
<rect x="6.53534" y="119.632" width="18.8304" height="25.2495" fill="#2FCF35" stroke="black"/>
<rect x="8.25972" y="89.3445" width="18.8304" height="25.2495" fill="#2FCF35" stroke="black"/>
<rect x="9.9841" y="59.0566" width="18.8304" height="25.2495" fill="white" stroke="black"/>
<path d="M48.3392 94.8671L52.0566 106.475L46.6662 117.642L31.5389 118.6V93.4276L48.3392 94.8671Z" fill="white" stroke="black"/>
<path d="M48.3392 94.8671L52.0566 106.475L46.6662 117.642L31.5389 118.6V93.4276L48.3392 94.8671Z" fill="white" stroke="black"/>
<rect x="0.583623" y="0.350043" width="19.0416" height="12.0219" transform="matrix(0.960492 -0.278308 0.206755 0.978393 51.4885 96.0339)" fill="white" stroke="black"/>
<rect x="0.583623" y="0.350043" width="19.0416" height="12.0219" transform="matrix(0.960492 -0.278308 0.206755 0.978393 73.2369 89.5445)" fill="white" stroke="black"/>
<rect x="0.562017" y="0.397595" width="18.9327" height="12.0751" transform="matrix(0.9809 -0.194513 0.143133 0.989703 95.0541 83.4895)" fill="white" stroke="black"/>
<rect x="0.504609" y="0.493603" width="18.8308" height="12.1245" transform="matrix(0.999919 -0.0127507 0.00929953 0.999957 117.99 78.7092)" fill="white" stroke="black"/>
<path d="M140.18 78.4855L159.004 78.2454L159.004 85.928L140.291 90.4814L140.18 78.4855Z" fill="white" stroke="black"/>
<rect x="0.504609" y="0.493603" width="17.042" height="6.04464" transform="matrix(0.999919 -0.0127507 0.00929953 0.999957 161.225 77.9983)" fill="white" stroke="black"/>
<rect x="28.0901" y="120.642" width="18.8304" height="25.2495" fill="white" stroke="black"/>
<path d="M205.917 133.632L190.017 137.423L186.374 107.869L201.758 109.503L205.917 133.632Z" fill="white" stroke="black"/>
<path d="M190.286 140.706L206.185 136.908L209.837 166.46L194.453 164.833L190.286 140.706Z" fill="white" stroke="black"/>
<path d="M212.086 170.073L215.877 200.789L200.501 199.163L195.877 168.175L212.086 170.073Z" fill="white" stroke="black"/>
<path d="M206.621 209.113L206.605 209.126L206.591 209.141L198.595 217.165L200.874 202.931L213.785 202.931L206.621 209.113Z" fill="white" stroke="black"/>
<rect x="26.3657" y="178.189" width="18.8304" height="25.2495" fill="white" stroke="black"/>
<rect x="26.3657" y="148.911" width="18.8304" height="25.2495" fill="white" stroke="black"/>
<path d="M31.5389 67.8149L37.0291 84.9586L37.0875 85.1409L37.2527 85.2376L48.3079 91.7103L31.5389 90.4012V67.8149Z" fill="white" stroke="black"/>
<path d="M198.235 55.6997L192.745 72.8435L192.686 73.0258L192.521 73.1225L181.466 79.5951L198.235 78.2861V55.6997Z" fill="white" stroke="black"/>
<rect x="13.4329" y="38.8647" width="13.6572" height="17.1727" fill="white" stroke="black"/>
<rect x="14.2951" y="19.6823" width="11.0707" height="16.1631" fill="white" stroke="black"/>
<rect x="15.1572" y="8.57678" width="5.89753" height="8.08637" fill="white" stroke="black"/>
<rect x="-0.460449" y="0.549221" width="22.1972" height="21.4481" transform="matrix(0.0739701 0.99726 -0.994868 0.101182 175.923 232.151)" fill="#2FCF35" stroke="black"/>
<rect x="-0.332941" y="0.660051" width="21.9166" height="21.8134" transform="matrix(0.26831 0.963333 -0.934193 0.356769 198.434 224.876)" fill="#2FCF35" stroke="black"/>
<rect x="-0.0872833" y="0.754041" width="20.9794" height="22.9629" transform="matrix(0.559401 0.828897 -0.733967 0.679185 216.407 205.262)" fill="white" stroke="black"/>
<rect x="201.39" y="10.596" width="11.9329" height="17.1727" fill="white" stroke="black"/>
<rect x="201.39" y="31.7975" width="11.9329" height="18.1823" fill="white" stroke="black"/>
<rect x="201.39" y="54.0086" width="18.8304" height="25.2495" fill="white" stroke="black"/>
<rect x="204.839" y="83.2869" width="18.8304" height="25.2495" fill="#2FCF35" stroke="black"/>
<rect x="209.15" y="112.565" width="18.8304" height="25.2495" fill="#2FCF35" stroke="black"/>
<path d="M66.4516 166.002L66.4479 165.978L66.4419 165.955C66.1276 164.728 66.1224 163.942 66.2522 163.455C66.3726 163.002 66.6088 162.8 66.8838 162.699C67.194 162.586 67.6033 162.586 68.0519 162.667C68.4916 162.745 68.9156 162.89 69.2245 163.011C70.0602 163.337 70.4839 163.631 70.7205 163.971C70.9545 164.307 71.0618 164.768 71.0618 165.574C71.0618 166.431 71.0565 166.971 70.8747 167.486C70.7036 167.972 70.3557 168.481 69.5708 169.181C69.4429 169.234 69.3138 169.293 69.1931 169.348C69.1707 169.358 69.1487 169.369 69.127 169.378C68.9548 169.457 68.7958 169.528 68.6403 169.583C68.3239 169.695 68.0944 169.715 67.9053 169.647C67.7238 169.581 67.4677 169.393 67.1964 168.828C66.9239 168.261 66.664 167.37 66.4516 166.002Z" fill="#2FCF35" stroke="black"/>
<path d="M80.6148 220.597C72.3378 214.136 68.5442 203.097 67.682 198.386V193.338H83.2014L89.6678 203.939L115.102 210.501L134.071 207.472L156.057 203.939L159.936 185.766L181.491 183.242L176.318 210.501L161.661 222.111L135.795 227.664L115.102 229.683C113.234 229.683 103.722 227.866 80.6148 220.597Z" fill="white" stroke="black"/>
</svg>
