<svg width="284" height="174" viewBox="0 0 284 174" fill="none" xmlns="http://www.w3.org/2000/svg">
<path id="rock" d="M45.8369 32.3515C57.3516 28.9648 69.5349 24.4603 81.6654 22.1658C84.0489 20.2644 86.3506 18.632 87.4382 18.1719C95.2974 14.8468 101.211 3.29911 109.001 1.88293C126.5 -1.29888 148.174 3.44266 165.484 6.45321C186.342 10.0805 212.585 5.76598 231.343 17.7031C234.256 19.5565 237.154 22.9495 238.843 25.9062C239.912 27.7755 245.328 27.7518 247.398 29.3046C250.728 31.802 255.891 33.8133 258.765 36.6874C260.728 38.6503 258.804 41.7045 260.406 43.4842C269.498 53.5866 273.933 63.1668 276.929 76.648C278.014 81.532 279.692 87.1062 282.085 91.4136C285.125 96.8853 281.298 100.581 281.031 105.124C280.493 114.266 274.199 113.971 266.265 117.312C259.581 120.126 254.639 126.945 245.992 130.32C234.259 134.898 220.155 139.816 207.555 140.866C202.318 141.303 200.699 140.155 197.594 144.148C188.31 156.083 170.191 156.253 157.516 162.077C124.048 177.454 90.4175 176.639 55.7978 164.655C43.8132 160.507 35.4255 154.256 22.6339 151.413C13.5633 149.397 0.48565 142.663 0.48565 132.546C0.48565 107.842 -0.456953 85.097 9.39184 62.9372C13.7261 53.1852 18.9455 46.06 26.8527 39.7342C32.5347 35.1886 38.8055 34.4195 45.8369 32.3515Z" fill="#685D5D"/>
</svg>
