<svg width="266" height="339" viewBox="0 0 266 339" fill="none" xmlns="http://www.w3.org/2000/svg">
<g id="tau">
<path id="Vector 31" d="M58.0347 39.5485L57.6692 38.7018C86.7649 105.692 112.738 265.013 140.919 248.234C167.11 233.999 203.348 265.919 198.807 306.818" stroke="#9C9467"/>
<path id="Vector 32" d="M57.6692 38.7018C86.7649 105.692 105.52 269.941 133.702 253.162C159.893 238.926 204.456 261.12 199.915 302.019" stroke="#9C9467"/>
<path id="Vector 31_2" d="M56.7848 37.0928C85.8805 104.083 124.008 258.299 152.189 241.52C178.38 227.284 203.497 261.647 198.956 302.546" stroke="#9C9467"/>
<path id="Vector 32_2" d="M57.227 37.8973C86.3227 104.888 116.79 263.226 144.971 246.447C171.162 232.211 203.348 265.919 198.807 306.819" stroke="#9C9467"/>
<path id="Vector 31_3" d="M57.227 37.8973C86.3227 104.888 130.894 252.938 159.075 236.159C185.266 221.923 203.939 262.451 199.398 303.351" stroke="#9C9467"/>
<path id="Vector 32_3" d="M56.2682 38.4243L57.2269 37.8973C86.3226 104.887 123.676 257.865 151.857 241.087C178.048 226.851 203.348 265.919 198.807 306.819" stroke="#9C9467"/>
<path id="Vector 31_4" d="M57.2262 35.8027L56.8591 34.9568C85.9548 101.947 142.165 246.223 170.347 229.444C196.538 215.208 204.679 254.712 200.138 295.611" stroke="#9C9467"/>
<path id="Vector 32_4" d="M57.668 36.6074L57.3013 35.7613C86.3971 102.752 134.948 251.15 163.129 234.371C189.32 220.136 204.604 256.848 200.063 297.747" stroke="#9C9467"/>
<path id="Vector 31_5" d="M70.6834 60.2259L61.1755 38.7254C90.2712 105.716 153.02 238.68 181.201 221.901C207.392 207.665 203.129 258.707 198.588 299.606" stroke="#9C9467"/>
<path id="Vector 32_5" d="M56.8592 34.9569C85.9549 101.947 145.802 243.607 173.983 226.829C200.174 212.593 204.161 256.043 199.62 296.943" stroke="#9C9467"/>
<path id="Vector 31_6" d="M57.301 35.7607C86.3967 102.751 164.29 231.964 192.471 215.185C218.662 200.95 204.603 256.848 200.062 297.747" stroke="#9C9467"/>
<path id="Vector 32_6" d="M59.8298 41.7044L56.859 34.9566C85.9547 101.947 157.072 236.892 185.253 220.113C211.444 205.877 204.087 258.178 199.546 299.078" stroke="#9C9467"/>
<path id="Vector 31_7" d="M56.8591 34.9568C85.9548 101.947 171.176 226.606 199.358 209.827C225.549 195.591 204.678 254.712 200.137 295.612" stroke="#9C9467"/>
<path id="Vector 32_7" d="M57.3014 35.7613C86.3971 102.752 163.959 231.533 192.14 214.754C218.331 200.518 204.013 260.316 199.472 301.216" stroke="#9C9467"/>
<path id="Vector 31_8" d="M56.4169 34.1521C85.5126 101.142 182.448 219.891 210.629 203.112C236.82 188.876 204.381 263.256 199.84 304.155" stroke="#9C9467"/>
<path id="Vector 32_8" d="M56.4169 34.1524C85.5126 101.143 175.23 224.818 203.411 208.04C229.602 193.804 204.236 253.908 199.695 294.808" stroke="#9C9467"/>
<rect id="rope__end--top" width="17.3272" height="8.11845" rx="4.05922" transform="matrix(-0.439862 -0.898065 0.891845 -0.452341 60.0309 49.7388)" fill="black"/>
<path id="rope__end--bottom" d="M197.566 310.649C195.423 310.666 193.947 308.963 194.269 306.844L195.86 296.371C196.182 294.253 198.18 292.52 200.324 292.503V292.503C202.467 292.485 203.943 294.189 203.621 296.307L202.03 306.78C201.708 308.899 199.71 310.631 197.566 310.649V310.649Z" fill="black"/>
</g>
</svg>
