<svg width="244" height="262" viewBox="0 0 244 262" fill="none" xmlns="http://www.w3.org/2000/svg">
<g id="Group 20">
<path id="Rectangle 196" d="M17.6342 113.714L37.6027 62.9582L63.673 63.4398L48.6939 113.714H17.6342Z" fill="#82E185" stroke="black"/>
<path id="Rectangle 208" d="M50.2249 58.7011L77.1659 47.6983H83.5657L64.8979 58.7011H50.2249Z" fill="#82E185" stroke="black"/>
<path id="Rectangle 198" d="M106.228 193.71L98.7116 226.347L40.2289 180.049L64.4414 165.691L106.228 193.71Z" fill="#82E185" stroke="black"/>
<path id="Rectangle 199" d="M158.968 194.25L158.968 223.974L104.277 223.974L110.315 194.25L158.968 194.25Z" fill="#82E185" stroke="black"/>
<path id="Rectangle 201" d="M214.417 223.773L162.711 223.773L162.711 194.049L192.763 194.049L214.417 223.773Z" fill="#82E185" stroke="black"/>
<path id="Rectangle 203" d="M206.218 135.774L214.969 130.37L214.969 171.982L206.218 162.526L206.218 135.774Z" fill="#82E185" stroke="black"/>
<path id="Rectangle 204" d="M183.826 109.482L188.321 96.46L214.556 127.896L204.453 134.798L183.826 109.482Z" fill="#82E185" stroke="black"/>
<path id="Rectangle 205" d="M168.106 71.4065L185.508 94.0677L181.047 107.153L162.805 82.6331L168.106 71.4065Z" fill="#82E185" stroke="black"/>
<path id="Rectangle 209" d="M118.861 101.889L136.674 108.546L132.695 130.282L109.904 121.675L118.861 101.889Z" fill="#82E185" stroke="black"/>
<path id="Rectangle 211" d="M95.0801 92.163L112.8 98.7856L108.876 116.554L90.1646 110.131L95.0801 92.163Z" fill="#82E185" stroke="black"/>
<path id="Rectangle 212" d="M129.047 72.8686L142.688 82.9766L142.688 100.898L125.07 92.1691L129.047 72.8686Z" fill="#82E185" stroke="black"/>
<path id="Rectangle 213" d="M144.563 110.153L162.28 116.774L156.382 134.784L138.552 126.935L144.563 110.153Z" fill="#82E185" stroke="black"/>
<path id="Rectangle 229" d="M191.966 130.25L201.745 135.775L201.745 153.026L188.351 148.625L191.966 130.25Z" fill="#82E185" stroke="black"/>
<path id="Rectangle 231" d="M6.70377 25.6821L15.7107 15.4921L15.7107 29.2039L6.70377 25.6821Z" fill="#82E185" stroke="black"/>
<path id="Rectangle 232" d="M17.7376 13.1297L30.6449 2.28183L26.5839 18.9261L17.7376 13.1297Z" fill="#82E185" stroke="black"/>
<path id="Rectangle 233" d="M20.1745 30.212L20.1745 18.4889L29.8161 23.0478L20.1745 30.212Z" fill="#82E185" stroke="black"/>
<g id="mouth">
<path id="Rectangle 246" d="M21.6016 33.5952L23.9618 40.152L15.4342 31.3255L21.6016 33.5952Z" fill="#82E185" stroke="black"/>
</g>
<path id="Rectangle 247" d="M38.45 58.946L29.9404 47.1969L41.6017 58.946L38.45 58.946Z" fill="#82E185" stroke="black"/>
<path id="Rectangle 240" d="M38.8355 37.044L33.0964 25.4964L40.6405 22.8263L38.8355 37.044Z" fill="#82E185" stroke="black"/>
<path id="Rectangle 242" d="M43.069 58.0414L37.7804 50.1436L45.6171 46.026L43.069 58.0414Z" fill="#82E185" stroke="black"/>
<path id="Rectangle 245" d="M44.9868 43.3787L39.7258 45.4091L41.6047 32.8211L44.9868 43.3787Z" fill="#82E185" stroke="black"/>
<path id="Rectangle 243" d="M38.5523 42.0205L37.0095 47.9805L27.1195 37.8103L38.5523 42.0205Z" fill="#82E185" stroke="black"/>
<path id="Rectangle 244" d="M57.0866 52.3949L45.7338 58.2057L49.319 47.2294L57.0866 52.3949Z" fill="#82E185" stroke="black"/>
<path id="Rectangle 241" d="M30.5691 27.0885L36.1186 37.5981L22.2448 31.1731L30.5691 27.0885Z" fill="#82E185" stroke="black"/>
<path id="Rectangle 234" d="M31.1341 15.1337L34.5855 1.84894L48.8749 1.76299L31.1341 15.1337Z" fill="#82E185" stroke="black"/>
<path id="Rectangle 235" d="M40.6692 15.5853L51.7879 4.23517L57.5148 8.74472L40.6692 15.5853Z" fill="#82E185" stroke="black"/>
<path id="Rectangle 237" d="M43.7868 22.8467L63.0281 25.5963L64.0694 34.9826L43.7868 22.8467Z" fill="#82E185" stroke="black"/>
<path id="Rectangle 238" d="M44.6846 30.7219L62.9097 37.8402L62.072 47.2358L44.6846 30.7219Z" fill="#82E185" stroke="black"/>
<path id="Rectangle 239" d="M54.8431 48.9346L47.4775 40.547L59.2625 48.9346L54.8431 48.9346Z" fill="#82E185" stroke="black"/>
<path id="Rectangle 236" d="M41.1402 19.795L59.5452 13.0105L64.3456 20.9357L41.1402 19.795Z" fill="#82E185" stroke="black"/>
<path id="Rectangle 230" d="M172.429 101.648L182.875 111.525L188.535 123.983L168.607 115.415L172.429 101.648Z" fill="#82E185" stroke="black"/>
<path id="Rectangle 228" d="M182.477 152.649L200.29 159.306L196.311 181.042L173.52 172.434L182.477 152.649Z" fill="#82E185" stroke="black"/>
<path id="Rectangle 227" d="M152.393 163.651L170.206 170.308L166.227 192.044L143.436 183.437L152.393 163.651Z" fill="#82E185" stroke="black"/>
<path id="Rectangle 226" d="M78.8723 57.573L99.6207 61.8488L95.4539 81.2807L73.5281 73.1439L78.8723 57.573Z" fill="#82E185" stroke="black"/>
<path id="Rectangle 225" d="M70.9356 81.6316L88.748 88.2886L84.7691 110.025L61.9787 101.417L70.9356 81.6316Z" fill="#82E185" stroke="black"/>
<path id="Rectangle 224" d="M63.5304 105.637L81.3427 112.294L77.3639 134.03L54.5735 125.423L63.5304 105.637Z" fill="#82E185" stroke="black"/>
<g id="sturtle__frontfoot--left">
<path id="Rectangle 250" d="M13.258 87.6379L16.6876 89.0639L15.9972 93.4886L11.6067 91.6448L13.258 87.6379Z" fill="#82E185" stroke="black"/>
<path id="Rectangle 257" d="M12.0158 93.8497L14.3185 94.6638L13.7869 97.3608L10.85 96.3111L12.0158 93.8497Z" fill="#82E185" stroke="black"/>
<path id="Rectangle 258" d="M18.6741 101.265L20.6856 101.841L20.1648 103.926L17.6149 103.186L18.6741 101.265Z" fill="#82E185" stroke="black"/>
<path id="Rectangle 260" d="M13.6879 103.265L15.6994 103.841L15.1786 105.926L12.6287 105.187L13.6879 103.265Z" fill="#82E185" stroke="black"/>
<path id="Rectangle 259" d="M14.7073 100.08L16.2487 100.595L15.883 102.323L13.9243 101.662L14.7073 100.08Z" fill="#82E185" stroke="black"/>
<path id="Rectangle 261" d="M17.4842 104.66L19.0256 105.174L18.66 106.902L16.7013 106.241L17.4842 104.66Z" fill="#82E185" stroke="black"/>
<path id="Rectangle 256" d="M9.0925 97.1402L12.5222 98.5662L11.8318 102.991L7.44124 101.147L9.0925 97.1402Z" fill="#82E185" stroke="black"/>
<path id="Rectangle 255" d="M13.1877 106.895L16.812 107.585L16.9188 112.069L12.2778 111.167L13.1877 106.895Z" fill="#82E185" stroke="black"/>
<path id="Rectangle 254" d="M7.24119 104.642L10.6709 106.068L9.98045 110.493L5.58992 108.649L7.24119 104.642Z" fill="#82E185" stroke="black"/>
<path id="Rectangle 253" d="M3.76997 102.433L5.06537 104.018L4.07095 106.746L2.39352 104.679L3.76997 102.433Z" fill="#82E185" stroke="black"/>
<path id="Rectangle 252" d="M2.61291 95.1397L6.0426 96.5657L5.35217 100.99L0.961642 99.1466L2.61291 95.1397Z" fill="#82E185" stroke="black"/>
<path id="Rectangle 251" d="M6.77836 89.6384L10.2081 91.0644L9.51762 95.489L5.1271 93.6453L6.77836 89.6384Z" fill="#82E185" stroke="black"/>
<path id="Rectangle 249" d="M18.0906 93.4663L22.9222 94.8817L21.6541 100.074L15.4937 98.2479L18.0906 93.4663Z" fill="#82E185" stroke="black"/>
<path id="Rectangle 248" d="M20.3842 85.9967L25.3213 87.9085L24.2558 94.0299L17.941 91.5592L20.3842 85.9967Z" fill="#82E185" stroke="black"/>
</g>
<g id="sturtle__backfoot--left">
<path id="Rectangle 276" d="M139.525 246.657L139.95 240.795L144.679 240.135L144.119 247.619L139.525 246.657Z" fill="#82E185" stroke="black"/>
<path id="Rectangle 277" d="M145.989 246.155L146.128 242.176L149.106 241.937L148.917 246.994L145.989 246.155Z" fill="#82E185" stroke="black"/>
<path id="Rectangle 278" d="M151.333 233.679L151.311 230.225L153.675 230.21L153.693 234.575L151.333 233.679Z" fill="#82E185" stroke="black"/>
<path id="Rectangle 279" d="M154.746 240.213L154.724 236.759L157.087 236.745L157.106 241.11L154.746 240.213Z" fill="#82E185" stroke="black"/>
<path id="Rectangle 280" d="M151.319 239.914L151.382 237.16L153.358 237.043L153.27 240.524L151.319 239.914Z" fill="#82E185" stroke="black"/>
<path id="Rectangle 281" d="M155.002 234.164L155.065 231.411L157.041 231.293L156.953 234.774L155.002 234.164Z" fill="#82E185" stroke="black"/>
<path id="Rectangle 282" d="M150.055 249.212L150.48 243.349L155.21 242.69L154.649 250.174L150.055 249.212Z" fill="#82E185" stroke="black"/>
<path id="Rectangle 283" d="M158.438 239.642L158.041 233.797L162.614 231.892L163.105 239.373L158.438 239.642Z" fill="#82E185" stroke="black"/>
<path id="Rectangle 284" d="M157.95 249.132L158.375 243.269L163.105 242.61L162.544 250.094L157.95 249.132Z" fill="#82E185" stroke="black"/>
<path id="Rectangle 285" d="M156.725 254.993L158.069 252.164L161.251 252.636L159.518 256.254L156.725 254.993Z" fill="#82E185" stroke="black"/>
<path id="Rectangle 286" d="M149.979 259.408L150.403 253.546L155.133 252.886L154.573 260.371L149.979 259.408Z" fill="#82E185" stroke="black"/>
<path id="Rectangle 287" d="M143.372 255.37L143.797 249.507L148.526 248.848L147.966 256.332L143.372 255.37Z" fill="#82E185" stroke="black"/>
<path id="Rectangle 288" d="M143.855 237.423L143.837 229.541L149.466 229.464L149.467 239.502L143.855 237.423Z" fill="#82E185" stroke="black"/>
<path id="Rectangle 289" d="M135.848 236.862L136.304 228.625L142.801 227.889L142.193 238.408L135.848 236.862Z" fill="#82E185" stroke="black"/>
</g>
<g id="sturtle__frontfoot--right">
<path id="Rectangle 262" d="M82.2826 34.0609L82.8813 36.9555L80.1816 38.3424L79.4263 34.6345L82.2826 34.0609Z" fill="#82E185" stroke="black"/>
<path id="Rectangle 263" d="M78.1063 35.9478L78.5712 37.7682L76.9559 38.5059L76.3712 36.1883L78.1063 35.9478Z" fill="#82E185" stroke="black"/>
<path id="Rectangle 264" d="M76.6198 44.003L77.0891 45.5105L75.842 45.994L75.2559 44.0929L76.6198 44.003Z" fill="#82E185" stroke="black"/>
<path id="Rectangle 265" d="M73.3027 41.3437L73.772 42.8512L72.5249 43.3346L71.9388 41.4336L73.3027 41.3437Z" fill="#82E185" stroke="black"/>
<path id="Rectangle 266" d="M75.6078 40.6501L75.9185 41.7946L74.9442 42.2206L74.5559 40.7741L75.6078 40.6501Z" fill="#82E185" stroke="black"/>
<path id="Rectangle 267" d="M74.1143 44.6767L74.425 45.8212L73.4506 46.2472L73.0624 44.8007L74.1143 44.6767Z" fill="#82E185" stroke="black"/>
<path id="Rectangle 268" d="M74.9163 35.341L75.515 38.2356L72.8153 39.6225L72.06 35.9146L74.9163 35.341Z" fill="#82E185" stroke="black"/>
<path id="Rectangle 269" d="M70.9808 42.6383L72.0574 45.3394L69.6403 47.2849L68.2708 43.8182L70.9808 42.6383Z" fill="#82E185" stroke="black"/>
<path id="Rectangle 270" d="M69.7186 37.3755L70.3173 40.2701L67.6176 41.6569L66.8623 37.949L69.7186 37.3755Z" fill="#82E185" stroke="black"/>
<path id="Rectangle 271" d="M69.4746 33.8854L69.1403 35.3469L67.3351 35.8017L67.7751 33.906L69.4746 33.8854Z" fill="#82E185" stroke="black"/>
<path id="Rectangle 272" d="M73.305 29.829L73.9037 32.7236L71.204 34.1104L70.4487 30.4026L73.305 29.829Z" fill="#82E185" stroke="black"/>
<path id="Rectangle 273" d="M78.3236 30.3379L78.9223 33.2325L76.2226 34.6193L75.4673 30.9115L78.3236 30.3379Z" fill="#82E185" stroke="black"/>
<path id="Rectangle 274" d="M80.9446 40.1009L82.1348 43.9935L78.7423 45.3326L77.2407 40.3721L80.9446 40.1009Z" fill="#82E185" stroke="black"/>
<path id="Rectangle 275" d="M86.31 38.4035L87.2679 42.5908L83.4122 44.4735L82.2028 39.1135L86.31 38.4035Z" fill="#82E185" stroke="black"/>
</g>
<path id="Rectangle 223" d="M78.8037 138.645L96.6161 145.302L92.6372 167.038L69.8468 158.431L78.8037 138.645Z" fill="#82E185" stroke="black"/>
<path id="Rectangle 222" d="M103.334 148.648L121.146 155.305L117.167 177.041L94.3767 168.433L103.334 148.648Z" fill="#82E185" stroke="black"/>
<path id="Rectangle 221" d="M126.938 157.15L144.75 163.807L140.771 185.543L117.981 176.935L126.938 157.15Z" fill="#82E185" stroke="black"/>
<path id="Rectangle 220" d="M157.623 142.194L175.764 152.234L171.858 166.535L151.75 157.939L157.623 142.194Z" fill="#82E185" stroke="black"/>
<path id="Rectangle 219" d="M169.518 120.141L187.33 126.798L183.352 148.534L160.561 139.927L169.518 120.141Z" fill="#82E185" stroke="black"/>
<path id="Rectangle 218" d="M106.677 63.3309L120.287 72.239L120.287 91.7364L102.851 85.3696L106.677 63.3309Z" fill="#82E185" stroke="black"/>
<path id="Rectangle 217" d="M151.047 86.3162L164.718 95.7372L164.718 114.388L146.147 104.936L151.047 86.3162Z" fill="#82E185" stroke="black"/>
<path id="Rectangle 216" d="M88.0566 116.639L105.802 123.271L99.2398 141.535L80.5046 132.961L88.0566 116.639Z" fill="#82E185" stroke="black"/>
<path id="Rectangle 215" d="M134.806 132.644L152.618 139.301L148.639 161.037L125.849 152.43L134.806 132.644Z" fill="#82E185" stroke="black"/>
<path id="Rectangle 214" d="M110.246 127.103L128.084 132.814L124.165 149.046L105.679 141.911L110.246 127.103Z" fill="#82E185" stroke="black"/>
<path id="Rectangle 206" d="M129.153 50.2946L166.003 70.493L161.407 81.8256L129.153 64.1335L129.153 50.2946Z" fill="#82E185" stroke="black"/>
<path id="Rectangle 207" d="M100.952 40.0056L126.11 48.3326L126.11 65.1775L87.2207 47.888L100.952 40.0056Z" fill="#82E185" stroke="black"/>
<path id="Rectangle 202" d="M214.873 219.153L196.352 188.226L205.884 169.542L214.873 177.94L214.873 219.153Z" fill="#82E185" stroke="black"/>
<path id="Rectangle 197" d="M64.4253 163.96L35.4904 178.502L18.9241 115.326L47.1704 115.327L64.4253 163.96Z" fill="#82E185" stroke="black"/>
<ellipse id="Ellipse 8" cx="35.4133" cy="19.4416" rx="3.2398" ry="3.00072" fill="#82E185"/>
<g id="sturtle__backfoot--right">
<path id="Rectangle 290" d="M232.376 190.057L228.22 189.662L227.919 186.443L233.212 186.959L232.376 190.057Z" fill="#82E185" stroke="black"/>
<path id="Rectangle 291" d="M232.242 185.357L229.497 185.196L229.435 183.257L232.904 183.469L232.242 185.357Z" fill="#82E185" stroke="black"/>
<path id="Rectangle 292" d="M223.041 181.245L220.692 181.201L220.758 179.714L223.701 179.776L223.041 181.245Z" fill="#82E185" stroke="black"/>
<path id="Rectangle 293" d="M228.092 178.889L225.743 178.845L225.81 177.359L228.753 177.42L228.092 178.889Z" fill="#82E185" stroke="black"/>
<path id="Rectangle 294" d="M227.737 181.37L225.914 181.284L225.901 180.076L228.184 180.189L227.737 181.37Z" fill="#82E185" stroke="black"/>
<path id="Rectangle 295" d="M223.539 178.587L221.717 178.501L221.704 177.293L223.986 177.406L223.539 178.587Z" fill="#82E185" stroke="black"/>
<path id="Rectangle 296" d="M234.692 182.458L230.535 182.063L230.235 178.844L235.528 179.36L234.692 182.458Z" fill="#82E185" stroke="black"/>
<path id="Rectangle 297" d="M227.759 176.213L223.591 176.382L222.404 173.236L227.731 173.033L227.759 176.213Z" fill="#82E185" stroke="black"/>
<path id="Rectangle 298" d="M234.924 176.723L230.767 176.328L230.467 173.109L235.76 173.625L234.924 176.723Z" fill="#82E185" stroke="black"/>
<path id="Rectangle 299" d="M239.35 177.677L237.478 176.751L237.899 174.702L240.289 175.892L239.35 177.677Z" fill="#82E185" stroke="black"/>
<path id="Rectangle 300" d="M242.374 182.705L238.218 182.31L237.917 179.092L243.21 179.607L242.374 182.705Z" fill="#82E185" stroke="black"/>
<path id="Rectangle 301" d="M239.086 187.427L234.93 187.032L234.629 183.814L239.922 184.329L239.086 187.427Z" fill="#82E185" stroke="black"/>
<path id="Rectangle 302" d="M225.585 186.746L219.899 186.617L220.041 182.757L227.26 182.936L225.585 186.746Z" fill="#82E185" stroke="black"/>
<path id="Rectangle 303" d="M224.738 192.186L218.794 191.719L218.495 187.215L226.071 187.828L224.738 192.186Z" fill="#82E185" stroke="black"/>
</g>
</g>
</svg>
