<svg width="244" height="260" viewBox="0 0 244 260" fill="none" xmlns="http://www.w3.org/2000/svg">
<g id="Group 27">
<path id="Rectangle 196" d="M17.6362 112.836L37.6017 62.4679L63.6715 62.9458L48.6947 112.836H17.6362Z" fill="#82E185" stroke="black"/>
<path id="Rectangle 208" d="M50.2427 58.2352L77.1653 47.3223H83.5537L64.8988 58.2352H50.2427Z" fill="#82E185" stroke="black"/>
<path id="Rectangle 198" d="M106.227 192.24L98.7121 224.626L40.2333 178.678L64.4402 164.43L106.227 192.24Z" fill="#82E185" stroke="black"/>
<path id="Rectangle 199" d="M158.967 192.775L158.967 222.271L104.279 222.271L110.317 192.775L158.967 192.775Z" fill="#82E185" stroke="black"/>
<path id="Rectangle 201" d="M192.763 192.575L214.414 222.072L162.713 222.072L162.713 192.575L192.763 192.575Z" fill="#82E185" stroke="black"/>
<path id="Rectangle 203" d="M206.22 134.735L214.967 129.374L214.967 170.666L206.22 161.284L206.22 134.735Z" fill="#82E185" stroke="black"/>
<path id="Rectangle 204" d="M183.827 108.639L188.321 95.7172L214.553 126.913L204.451 133.763L183.827 108.639Z" fill="#82E185" stroke="black"/>
<path id="Rectangle 205" d="M168.107 70.8514L185.507 93.3403L181.046 106.325L162.807 81.9923L168.107 70.8514Z" fill="#82E185" stroke="black"/>
<path id="Rectangle 209" d="M118.862 101.106L136.672 107.713L132.694 129.281L109.907 120.74L118.862 101.106Z" fill="#82E185" stroke="black"/>
<path id="Rectangle 211" d="M95.0804 91.453L112.799 98.0253L108.876 115.656L90.1662 109.282L95.0804 91.453Z" fill="#82E185" stroke="black"/>
<path id="Rectangle 212" d="M129.047 72.3026L142.687 82.3342L142.687 100.117L125.071 91.4545L129.047 72.3026Z" fill="#82E185" stroke="black"/>
<path id="Rectangle 213" d="M144.564 109.308L162.278 115.879L156.381 133.749L138.554 125.96L144.564 109.308Z" fill="#82E185" stroke="black"/>
<path id="Rectangle 229" d="M191.966 129.254L201.744 134.737L201.744 151.854L188.353 147.487L191.966 129.254Z" fill="#82E185" stroke="black"/>
<path id="Rectangle 231" d="M6.708 25.4663L15.7102 15.3579L15.7102 28.9599L6.708 25.4663Z" fill="#82E185" stroke="black"/>
<path id="Rectangle 232" d="M17.7416 13.0094L30.6424 2.24816L26.5834 18.7595L17.7416 13.0094Z" fill="#82E185" stroke="black"/>
<path id="Rectangle 233" d="M20.175 29.9591L20.175 18.3306L29.8109 22.8527L20.175 29.9591Z" fill="#82E185" stroke="black"/>
<g id="sturtle__mouth">
<path id="Rectangle 246" d="M21.6023 33.3239L23.9603 39.8257L15.4406 31.0734L21.6023 33.3239Z" fill="#82E185" stroke="black"/>
</g>
<path id="Rectangle 247" d="M38.4485 58.4787L29.9482 46.8303L41.5968 58.4787L38.4485 58.4787Z" fill="#82E185" stroke="black"/>
<path id="Rectangle 240" d="M38.8349 36.7376L33.0995 25.2839L40.6387 22.6355L38.8349 36.7376Z" fill="#82E185" stroke="black"/>
<path id="Rectangle 242" d="M43.0687 57.5793L37.7836 49.7457L45.6151 45.6616L43.0687 57.5793Z" fill="#82E185" stroke="black"/>
<path id="Rectangle 245" d="M44.9843 43.0303L39.7276 45.0438L41.605 32.5604L44.9843 43.0303Z" fill="#82E185" stroke="black"/>
<path id="Rectangle 243" d="M38.5504 41.6855L37.0092 47.5945L27.1298 37.5113L38.5504 41.6855Z" fill="#82E185" stroke="black"/>
<path id="Rectangle 244" d="M57.0825 51.9793L45.7375 57.7425L49.3203 46.8561L57.0825 51.9793Z" fill="#82E185" stroke="black"/>
<path id="Rectangle 241" d="M30.5698 26.8662L36.116 37.2908L22.2505 30.9178L30.5698 26.8662Z" fill="#82E185" stroke="black"/>
<path id="Rectangle 234" d="M31.1366 14.9921L34.5857 1.81594L48.8652 1.73069L31.1366 14.9921Z" fill="#82E185" stroke="black"/>
<path id="Rectangle 235" d="M40.6816 15.4373L51.789 4.18371L57.51 8.65491L40.6816 15.4373Z" fill="#82E185" stroke="black"/>
<path id="Rectangle 237" d="M43.7992 22.6573L63.0265 25.3843L64.0671 34.6936L43.7992 22.6573Z" fill="#82E185" stroke="black"/>
<path id="Rectangle 238" d="M44.6932 30.4748L62.9076 37.5356L62.0704 46.8553L44.6932 30.4748Z" fill="#82E185" stroke="black"/>
<path id="Rectangle 239" d="M54.8424 48.5431L47.4857 40.2284L59.2565 48.5431L54.8424 48.5431Z" fill="#82E185" stroke="black"/>
<path id="Rectangle 236" d="M41.1565 19.6213L59.5453 12.8936L64.3415 20.7526L41.1565 19.6213Z" fill="#82E185" stroke="black"/>
<path id="Rectangle 230" d="M172.43 100.866L182.876 110.669L188.533 123.029L168.608 114.526L172.43 100.866Z" fill="#82E185" stroke="black"/>
<path id="Rectangle 228" d="M182.478 151.485L200.288 158.092L196.31 179.66L173.523 171.118L182.478 151.485Z" fill="#82E185" stroke="black"/>
<path id="Rectangle 227" d="M152.394 162.406L170.204 169.012L166.227 190.581L143.439 182.039L152.394 162.406Z" fill="#82E185" stroke="black"/>
<path id="Rectangle 226" d="M78.8726 57.1223L99.6192 61.3657L95.4536 80.6466L73.5301 72.5716L78.8726 57.1223Z" fill="#82E185" stroke="black"/>
<path id="Rectangle 225" d="M70.9361 81.0005L88.7467 87.6069L84.7688 109.175L61.9812 100.633L70.9361 81.0005Z" fill="#82E185" stroke="black"/>
<path id="Rectangle 224" d="M63.5308 104.826L81.3415 111.433L77.3635 133.001L54.5759 124.459L63.5308 104.826Z" fill="#82E185" stroke="black"/>
<g id="sturtle__frontfoot--left">
<path id="Rectangle 250" d="M13.2584 86.9617L16.6865 88.3764L15.9968 92.7631L11.6089 90.9342L13.2584 86.9617Z" fill="#82E185" stroke="black"/>
<path id="Rectangle 257" d="M12.0162 93.127L14.3171 93.9345L13.7866 96.6063L10.8526 95.5655L12.0162 93.127Z" fill="#82E185" stroke="black"/>
<path id="Rectangle 258" d="M18.6746 100.487L20.684 101.058L20.1645 103.122L17.618 102.389L18.6746 100.487Z" fill="#82E185" stroke="black"/>
<path id="Rectangle 260" d="M13.6883 102.472L15.6977 103.043L15.1783 105.107L12.6318 104.375L13.6883 102.472Z" fill="#82E185" stroke="black"/>
<path id="Rectangle 259" d="M14.7077 99.3112L16.2473 99.8212L15.8827 101.531L13.927 100.876L14.7077 99.3112Z" fill="#82E185" stroke="black"/>
<path id="Rectangle 261" d="M17.4847 103.856L19.0242 104.366L18.6597 106.076L16.704 105.421L17.4847 103.856Z" fill="#82E185" stroke="black"/>
<path id="Rectangle 256" d="M9.09293 96.3928L12.5211 97.8075L11.8314 102.194L7.44347 100.365L9.09293 96.3928Z" fill="#82E185" stroke="black"/>
<path id="Rectangle 255" d="M13.1888 106.074L16.8109 106.759L16.9176 111.205L12.2799 110.31L13.1888 106.074Z" fill="#82E185" stroke="black"/>
<path id="Rectangle 254" d="M7.24162 103.838L10.6698 105.253L9.98008 109.64L5.59215 107.811L7.24162 103.838Z" fill="#82E185" stroke="black"/>
<path id="Rectangle 253" d="M3.76959 101.646L5.06443 103.218L4.07139 105.922L2.39504 103.872L3.76959 101.646Z" fill="#82E185" stroke="black"/>
<path id="Rectangle 252" d="M2.61334 94.4073L6.04148 95.822L5.3518 100.209L0.963874 98.3798L2.61334 94.4073Z" fill="#82E185" stroke="black"/>
<path id="Rectangle 251" d="M6.7788 88.9472L10.2069 90.3619L9.51726 94.7486L5.12933 92.9197L6.7788 88.9472Z" fill="#82E185" stroke="black"/>
<path id="Rectangle 249" d="M18.091 92.7466L22.9206 94.1509L21.6538 99.2995L15.4968 97.4876L18.091 92.7466Z" fill="#82E185" stroke="black"/>
<path id="Rectangle 248" d="M20.3847 85.3328L25.3201 87.2297L24.2555 93.3003L17.9434 90.8492L20.3847 85.3328Z" fill="#82E185" stroke="black"/>
</g>
<g id="sturtle__backfoot--left">
<path id="Rectangle 276" d="M139.527 244.784L139.951 238.971L144.677 238.317L144.118 245.739L139.527 244.784Z" fill="#82E185" stroke="black"/>
<path id="Rectangle 277" d="M145.991 244.287L146.13 240.342L149.104 240.106L148.916 245.118L145.991 244.287Z" fill="#82E185" stroke="black"/>
<path id="Rectangle 278" d="M150.728 231.904L150.706 228.48L153.066 228.466L153.085 232.793L150.728 231.904Z" fill="#82E185" stroke="black"/>
<path id="Rectangle 279" d="M154.747 238.389L154.725 234.966L157.086 234.952L157.104 239.278L154.747 238.389Z" fill="#82E185" stroke="black"/>
<path id="Rectangle 280" d="M151.321 238.092L151.384 235.364L153.357 235.248L153.269 238.697L151.321 238.092Z" fill="#82E185" stroke="black"/>
<path id="Rectangle 281" d="M154.396 232.386L154.46 229.658L156.432 229.541L156.344 232.99L154.396 232.386Z" fill="#82E185" stroke="black"/>
<path id="Rectangle 282" d="M150.057 247.32L150.481 241.507L155.208 240.853L154.648 248.275L150.057 247.32Z" fill="#82E185" stroke="black"/>
<path id="Rectangle 283" d="M158.44 237.821L158.043 232.026L162.612 230.137L163.103 237.555L158.44 237.821Z" fill="#82E185" stroke="black"/>
<path id="Rectangle 284" d="M157.345 247.241L157.769 241.427L162.495 240.773L161.936 248.195L157.345 247.241Z" fill="#82E185" stroke="black"/>
<path id="Rectangle 285" d="M156.728 253.058L158.069 250.256L161.248 250.724L159.518 254.31L156.728 253.058Z" fill="#82E185" stroke="black"/>
<path id="Rectangle 286" d="M149.981 257.44L150.405 251.627L155.131 250.973L154.571 258.395L149.981 257.44Z" fill="#82E185" stroke="black"/>
<path id="Rectangle 287" d="M142.767 253.432L143.191 247.619L147.917 246.965L147.358 254.386L142.767 253.432Z" fill="#82E185" stroke="black"/>
<path id="Rectangle 288" d="M143.249 235.62L143.231 227.802L148.858 227.726L148.859 237.682L143.249 235.62Z" fill="#82E185" stroke="black"/>
<path id="Rectangle 289" d="M135.242 235.063L135.698 226.893L142.192 226.163L141.584 236.597L135.242 235.063Z" fill="#82E185" stroke="black"/>
</g>
<g id="sturtle__frontfoot--right">
<path id="Rectangle 262" d="M82.281 33.7858L82.879 36.6552L80.1831 38.0297L79.4287 34.3543L82.281 33.7858Z" fill="#82E185" stroke="black"/>
<path id="Rectangle 263" d="M78.1048 35.6584L78.5688 37.4617L76.9573 38.1921L76.3738 35.8966L78.1048 35.6584Z" fill="#82E185" stroke="black"/>
<path id="Rectangle 264" d="M76.6183 43.6532L77.0865 45.146L75.8434 45.6243L75.2587 43.7421L76.6183 43.6532Z" fill="#82E185" stroke="black"/>
<path id="Rectangle 265" d="M73.3012 41.0138L73.7694 42.5066L72.5263 42.9849L71.9416 41.1027L73.3012 41.0138Z" fill="#82E185" stroke="black"/>
<path id="Rectangle 266" d="M75.6063 40.3255L75.916 41.4579L74.9455 41.8791L74.5586 40.4481L75.6063 40.3255Z" fill="#82E185" stroke="black"/>
<path id="Rectangle 267" d="M74.1128 44.322L74.4225 45.4544L73.452 45.8755L73.0651 44.4445L74.1128 44.322Z" fill="#82E185" stroke="black"/>
<path id="Rectangle 268" d="M74.9147 35.0563L75.5127 37.9257L72.8168 39.3002L72.0624 35.6248L74.9147 35.0563Z" fill="#82E185" stroke="black"/>
<path id="Rectangle 269" d="M70.9795 42.2991L72.0551 44.9773L69.6415 46.9054L68.2735 43.4684L70.9795 42.2991Z" fill="#82E185" stroke="black"/>
<path id="Rectangle 270" d="M69.717 37.0755L70.315 39.9449L67.6191 41.3194L66.8647 37.644L69.717 37.0755Z" fill="#82E185" stroke="black"/>
<path id="Rectangle 271" d="M69.4721 33.6117L69.1389 35.0571L67.3379 35.5075L67.7764 33.6321L69.4721 33.6117Z" fill="#82E185" stroke="black"/>
<path id="Rectangle 272" d="M73.3034 29.5856L73.9014 32.4549L71.2055 33.8294L70.4511 30.154L73.3034 29.5856Z" fill="#82E185" stroke="black"/>
<path id="Rectangle 273" d="M78.322 30.0907L78.92 32.96L76.2241 34.3346L75.4697 30.6591L78.322 30.0907Z" fill="#82E185" stroke="black"/>
<path id="Rectangle 274" d="M80.9432 39.7804L82.1322 43.6403L78.7437 44.9678L77.2435 40.0492L80.9432 39.7804Z" fill="#82E185" stroke="black"/>
<path id="Rectangle 275" d="M86.3085 38.0958L87.2655 42.2483L83.4136 44.115L82.2053 38.7998L86.3085 38.0958Z" fill="#82E185" stroke="black"/>
</g>
<path id="Rectangle 223" d="M78.8041 137.587L96.6148 144.193L92.6369 165.762L69.8493 157.22L78.8041 137.587Z" fill="#82E185" stroke="black"/>
<path id="Rectangle 222" d="M103.334 147.514L121.145 154.121L117.167 175.689L94.3792 167.148L103.334 147.514Z" fill="#82E185" stroke="black"/>
<path id="Rectangle 221" d="M126.938 155.953L144.749 162.559L140.771 184.128L117.983 175.586L126.938 155.953Z" fill="#82E185" stroke="black"/>
<path id="Rectangle 220" d="M157.623 141.109L175.762 151.073L171.858 165.262L151.752 156.732L157.623 141.109Z" fill="#82E185" stroke="black"/>
<path id="Rectangle 219" d="M169.518 119.221L187.329 125.828L183.351 147.396L160.564 138.854L169.518 119.221Z" fill="#82E185" stroke="black"/>
<path id="Rectangle 218" d="M106.678 62.8364L120.286 71.6773L120.286 91.024L102.852 84.7055L106.678 62.8364Z" fill="#82E185" stroke="black"/>
<path id="Rectangle 217" d="M151.048 85.6495L164.718 94.9994L164.718 113.506L146.149 104.126L151.048 85.6495Z" fill="#82E185" stroke="black"/>
<path id="Rectangle 216" d="M88.057 115.745L105.8 122.327L99.2394 140.45L80.507 131.941L88.057 115.745Z" fill="#82E185" stroke="black"/>
<path id="Rectangle 215" d="M134.806 131.631L152.617 138.237L148.639 159.805L125.851 151.264L134.806 131.631Z" fill="#82E185" stroke="black"/>
<path id="Rectangle 214" d="M110.247 126.131L128.082 131.799L124.165 147.904L105.681 140.824L110.247 126.131Z" fill="#82E185" stroke="black"/>
<path id="Rectangle 206" d="M129.155 49.8987L166 69.9434L161.406 81.1873L129.155 63.6294L129.155 49.8987Z" fill="#82E185" stroke="black"/>
<path id="Rectangle 207" d="M100.952 39.6857L126.108 47.9496L126.108 64.6637L87.2253 47.5067L100.952 39.6857Z" fill="#82E185" stroke="black"/>
<path id="Rectangle 202" d="M214.873 217.485L196.353 186.792L205.883 168.252L214.873 176.588L214.873 217.485Z" fill="#82E185" stroke="black"/>
<path id="Rectangle 197" d="M64.4229 162.708L35.4917 177.14L18.9266 114.442L47.169 114.443L64.4229 162.708Z" fill="#82E185" stroke="black"/>
<ellipse id="Ellipse 8" cx="35.4133" cy="19.2735" rx="3.2398" ry="2.97824" fill="#82E185"/>
<g id="sturtle__backfoot--right">
<path id="Rectangle 290" d="M232.375 188.609L228.221 188.217L227.92 185.026L233.21 185.538L232.375 188.609Z" fill="#82E185" stroke="black"/>
<path id="Rectangle 291" d="M232.241 183.944L229.498 183.784L229.436 181.864L232.902 182.074L232.241 183.944Z" fill="#82E185" stroke="black"/>
<path id="Rectangle 292" d="M223.039 179.863L220.693 179.819L220.76 178.347L223.699 178.408L223.039 179.863Z" fill="#82E185" stroke="black"/>
<path id="Rectangle 293" d="M228.091 177.525L225.744 177.481L225.811 176.01L228.75 176.071L228.091 177.525Z" fill="#82E185" stroke="black"/>
<path id="Rectangle 294" d="M227.736 179.987L225.915 179.902L225.902 178.706L228.181 178.818L227.736 179.987Z" fill="#82E185" stroke="black"/>
<path id="Rectangle 295" d="M223.538 177.225L221.718 177.14L221.705 175.945L223.984 176.056L223.538 177.225Z" fill="#82E185" stroke="black"/>
<path id="Rectangle 296" d="M234.691 181.067L230.536 180.675L230.236 177.484L235.526 177.995L234.691 181.067Z" fill="#82E185" stroke="black"/>
<path id="Rectangle 297" d="M227.758 174.87L223.592 175.037L222.406 171.917L227.73 171.715L227.758 174.87Z" fill="#82E185" stroke="black"/>
<path id="Rectangle 298" d="M234.922 175.375L230.768 174.983L230.468 171.792L235.758 172.303L234.922 175.375Z" fill="#82E185" stroke="black"/>
<path id="Rectangle 299" d="M239.349 176.321L237.479 175.403L237.899 173.373L240.286 174.553L239.349 176.321Z" fill="#82E185" stroke="black"/>
<path id="Rectangle 300" d="M242.373 181.312L238.219 180.92L237.918 177.729L243.208 178.241L242.373 181.312Z" fill="#82E185" stroke="black"/>
<path id="Rectangle 301" d="M239.085 185.999L234.93 185.607L234.63 182.416L239.92 182.927L239.085 185.999Z" fill="#82E185" stroke="black"/>
<path id="Rectangle 302" d="M225.584 185.323L219.9 185.195L220.042 181.367L227.257 181.545L225.584 185.323Z" fill="#82E185" stroke="black"/>
<path id="Rectangle 303" d="M224.737 190.722L218.795 190.259L218.497 185.792L226.069 186.4L224.737 190.722Z" fill="#82E185" stroke="black"/>
</g>
</g>
</svg>
